<?xml version="1.0" encoding="UTF-8" standalone="no"?>
<!-- Created with Inkscape (http://www.inkscape.org/) -->

<svg
   xmlns:dc="http://purl.org/dc/elements/1.1/"
   xmlns:cc="http://creativecommons.org/ns#"
   xmlns:rdf="http://www.w3.org/1999/02/22-rdf-syntax-ns#"
   xmlns:svg="http://www.w3.org/2000/svg"
   xmlns="http://www.w3.org/2000/svg"
   xmlns:xlink="http://www.w3.org/1999/xlink"
   xmlns:sodipodi="http://sodipodi.sourceforge.net/DTD/sodipodi-0.dtd"
   xmlns:inkscape="http://www.inkscape.org/namespaces/inkscape"
   width="302.14331"
   height="403.97424"
   id="svg5950"
   version="1.1"
   inkscape:version="0.48.2 r9819"
   sodipodi:docname="Logo Masters 500.svg">
  <defs
     id="defs5952">
    <clipPath
       id="clipPath5341"
       clipPathUnits="userSpaceOnUse">
      <path
         inkscape:connector-curvature="0"
         id="path5343"
         d="m 737.008,7.936 737.007,0 0,1012.536 -737.007,0 0,-1012.536 z" />
    </clipPath>
    <clipPath
       id="clipPath4143"
       clipPathUnits="userSpaceOnUse">
      <path
         inkscape:connector-curvature="0"
         id="path4145"
         d="m 56.693,1323.306 80.226,0 0,108.19 -80.226,0 0,-108.19 z" />
    </clipPath>
    <linearGradient
       inkscape:collect="always"
       xlink:href="#linearGradient4167"
       id="linearGradient5497"
       gradientUnits="userSpaceOnUse"
       gradientTransform="matrix(63.361664,0,0,-63.361664,65.944885,1422.8051)"
       spreadMethod="pad"
       x1="0"
       y1="0"
       x2="1"
       y2="0" />
    <linearGradient
       id="linearGradient4167"
       spreadMethod="pad"
       gradientTransform="matrix(63.361664,0,0,-63.361664,65.944885,1422.8051)"
       gradientUnits="userSpaceOnUse"
       y2="0"
       x2="1"
       y1="0"
       x1="0">
      <stop
         id="stop4169"
         offset="0"
         style="stop-opacity:1;stop-color:#b06a0a" />
      <stop
         id="stop4171"
         offset="0.48999"
         style="stop-opacity:1;stop-color:#fccf34" />
      <stop
         id="stop4173"
         offset="1"
         style="stop-opacity:1;stop-color:#b06a0a" />
    </linearGradient>
    <linearGradient
       inkscape:collect="always"
       xlink:href="#linearGradient4189"
       id="linearGradient5499"
       gradientUnits="userSpaceOnUse"
       gradientTransform="matrix(63.359207,0,0,-63.359207,65.944885,1422.8051)"
       spreadMethod="pad"
       x1="0"
       y1="0"
       x2="1"
       y2="0" />
    <linearGradient
       id="linearGradient4189"
       spreadMethod="pad"
       gradientTransform="matrix(63.359207,0,0,-63.359207,65.944885,1422.8051)"
       gradientUnits="userSpaceOnUse"
       y2="0"
       x2="1"
       y1="0"
       x1="0">
      <stop
         id="stop4191"
         offset="0"
         style="stop-opacity:1;stop-color:#b06a0a" />
      <stop
         id="stop4193"
         offset="0.48999"
         style="stop-opacity:1;stop-color:#fccf34" />
      <stop
         id="stop4195"
         offset="1"
         style="stop-opacity:1;stop-color:#b06a0a" />
    </linearGradient>
    <linearGradient
       inkscape:collect="always"
       xlink:href="#linearGradient4211"
       id="linearGradient5501"
       gradientUnits="userSpaceOnUse"
       gradientTransform="matrix(63.360443,0,0,-63.360443,65.944641,1422.7984)"
       spreadMethod="pad"
       x1="0"
       y1="0"
       x2="1"
       y2="0" />
    <linearGradient
       id="linearGradient4211"
       spreadMethod="pad"
       gradientTransform="matrix(63.360443,0,0,-63.360443,65.944641,1422.7984)"
       gradientUnits="userSpaceOnUse"
       y2="0"
       x2="1"
       y1="0"
       x1="0">
      <stop
         id="stop4213"
         offset="0"
         style="stop-opacity:1;stop-color:#b06a0a" />
      <stop
         id="stop4215"
         offset="0.48999"
         style="stop-opacity:1;stop-color:#fccf34" />
      <stop
         id="stop4217"
         offset="1"
         style="stop-opacity:1;stop-color:#b06a0a" />
    </linearGradient>
    <linearGradient
       inkscape:collect="always"
       xlink:href="#linearGradient4233"
       id="linearGradient5503"
       gradientUnits="userSpaceOnUse"
       gradientTransform="matrix(63.346893,0,0,-63.346893,65.951233,1422.7982)"
       spreadMethod="pad"
       x1="0"
       y1="0"
       x2="1"
       y2="0" />
    <linearGradient
       id="linearGradient4233"
       spreadMethod="pad"
       gradientTransform="matrix(63.346893,0,0,-63.346893,65.951233,1422.7982)"
       gradientUnits="userSpaceOnUse"
       y2="0"
       x2="1"
       y1="0"
       x1="0">
      <stop
         id="stop4235"
         offset="0"
         style="stop-opacity:1;stop-color:#b06a0a" />
      <stop
         id="stop4237"
         offset="0.48999"
         style="stop-opacity:1;stop-color:#fccf34" />
      <stop
         id="stop4239"
         offset="1"
         style="stop-opacity:1;stop-color:#b06a0a" />
    </linearGradient>
    <linearGradient
       inkscape:collect="always"
       xlink:href="#linearGradient4255"
       id="linearGradient5505"
       gradientUnits="userSpaceOnUse"
       gradientTransform="matrix(63.370895,0,0,-63.370895,65.937683,1422.7961)"
       spreadMethod="pad"
       x1="0"
       y1="0"
       x2="1"
       y2="0" />
    <linearGradient
       id="linearGradient4255"
       spreadMethod="pad"
       gradientTransform="matrix(63.370895,0,0,-63.370895,65.937683,1422.7961)"
       gradientUnits="userSpaceOnUse"
       y2="0"
       x2="1"
       y1="0"
       x1="0">
      <stop
         id="stop4257"
         offset="0"
         style="stop-opacity:1;stop-color:#b06a0a" />
      <stop
         id="stop4259"
         offset="0.48999"
         style="stop-opacity:1;stop-color:#fccf34" />
      <stop
         id="stop4261"
         offset="1"
         style="stop-opacity:1;stop-color:#b06a0a" />
    </linearGradient>
    <linearGradient
       inkscape:collect="always"
       xlink:href="#linearGradient4277"
       id="linearGradient5507"
       gradientUnits="userSpaceOnUse"
       gradientTransform="matrix(63.357971,0,0,-63.357971,65.946732,1422.7949)"
       spreadMethod="pad"
       x1="0"
       y1="0"
       x2="1"
       y2="0" />
    <linearGradient
       id="linearGradient4277"
       spreadMethod="pad"
       gradientTransform="matrix(63.357971,0,0,-63.357971,65.946732,1422.7949)"
       gradientUnits="userSpaceOnUse"
       y2="0"
       x2="1"
       y1="0"
       x1="0">
      <stop
         id="stop4279"
         offset="0"
         style="stop-opacity:1;stop-color:#b06a0a" />
      <stop
         id="stop4281"
         offset="0.48999"
         style="stop-opacity:1;stop-color:#fccf34" />
      <stop
         id="stop4283"
         offset="1"
         style="stop-opacity:1;stop-color:#b06a0a" />
    </linearGradient>
    <linearGradient
       inkscape:collect="always"
       xlink:href="#linearGradient4299"
       id="linearGradient5509"
       gradientUnits="userSpaceOnUse"
       gradientTransform="matrix(63.361664,0,0,-63.361664,65.943726,1422.7984)"
       spreadMethod="pad"
       x1="0"
       y1="0"
       x2="1"
       y2="0" />
    <linearGradient
       id="linearGradient4299"
       spreadMethod="pad"
       gradientTransform="matrix(63.361664,0,0,-63.361664,65.943726,1422.7984)"
       gradientUnits="userSpaceOnUse"
       y2="0"
       x2="1"
       y1="0"
       x1="0">
      <stop
         id="stop4301"
         offset="0"
         style="stop-opacity:1;stop-color:#b06a0a" />
      <stop
         id="stop4303"
         offset="0.48999"
         style="stop-opacity:1;stop-color:#fccf34" />
      <stop
         id="stop4305"
         offset="1"
         style="stop-opacity:1;stop-color:#b06a0a" />
    </linearGradient>
    <linearGradient
       inkscape:collect="always"
       xlink:href="#linearGradient4321"
       id="linearGradient5511"
       gradientUnits="userSpaceOnUse"
       gradientTransform="matrix(75.695724,-85.227295,-85.227295,-75.695724,56.848511,1414.3225)"
       spreadMethod="pad"
       x1="0"
       y1="0"
       x2="1"
       y2="0" />
    <linearGradient
       id="linearGradient4321"
       spreadMethod="pad"
       gradientTransform="matrix(75.695724,-85.227295,-85.227295,-75.695724,56.848511,1414.3225)"
       gradientUnits="userSpaceOnUse"
       y2="0"
       x2="1"
       y1="0"
       x1="0">
      <stop
         id="stop4323"
         offset="0"
         style="stop-opacity:1;stop-color:#b06a0a" />
      <stop
         id="stop4325"
         offset="0.48999"
         style="stop-opacity:1;stop-color:#fccf34" />
      <stop
         id="stop4327"
         offset="1"
         style="stop-opacity:1;stop-color:#b06a0a" />
    </linearGradient>
    <clipPath
       id="clipPath4335"
       clipPathUnits="userSpaceOnUse">
      <path
         inkscape:connector-curvature="0"
         id="path4337"
         d="m 56.693,1323.306 80.226,0 0,108.19 -80.226,0 0,-108.19 z" />
    </clipPath>
  </defs>
  <sodipodi:namedview
     id="base"
     pagecolor="#ffffff"
     bordercolor="#666666"
     borderopacity="1.0"
     inkscape:pageopacity="0.0"
     inkscape:pageshadow="2"
     inkscape:zoom="0.7"
     inkscape:cx="44.681882"
     inkscape:cy="39.4005"
     inkscape:document-units="px"
     inkscape:current-layer="layer1"
     showgrid="false"
     fit-margin-bottom="5"
     fit-margin-top="5"
     fit-margin-right="5"
     fit-margin-left="5"
     inkscape:window-width="1366"
     inkscape:window-height="706"
     inkscape:window-x="-8"
     inkscape:window-y="-8"
     inkscape:window-maximized="1" />
  <metadata
     id="metadata5955">
    <rdf:RDF>
      <cc:Work
         rdf:about="">
        <dc:format>image/svg+xml</dc:format>
        <dc:type
           rdf:resource="http://purl.org/dc/dcmitype/StillImage" />
        <dc:title></dc:title>
      </cc:Work>
    </rdf:RDF>
  </metadata>
  <g
     inkscape:label="Calque 1"
     inkscape:groupmode="layer"
     id="layer1"
     transform="translate(-60.541575,-133.40671)">
    <g
       id="g5248"
       transform="matrix(3.6415269,0,0,-3.6415269,-140.90751,5351.2379)">
      <g
         id="g5191">
        <g
           id="g5177">
          <g
             id="g4139">
            <g
               id="g4141"
               clip-path="url(#clipPath4143)">
              <g
                 id="g4147"
                 transform="translate(136.4561,1420.2822)">
                <path
                   inkscape:connector-curvature="0"
                   d="m 0,0 c 0,-3.012 -2.465,-5.48 -5.48,-5.48 l -68.34,0 c -3.013,0 -5.479,2.468 -5.479,5.48 l 0,5.27 c 0,3.014 2.466,5.48 5.479,5.48 l 68.34,0 C -2.465,10.75 0,8.284 0,5.272 L 0,0"
                   style="fill:#231f20;fill-opacity:1;fill-rule:nonzero;stroke:none"
                   id="path4149-1" />
              </g>
              <g
                 id="g4151"
                 transform="translate(57.6215,1425.5525)">
                <path
                   inkscape:connector-curvature="0"
                   d="m 0,0 0,-5.269 c 0.004,-2.753 2.259,-5.011 5.015,-5.016 l 68.339,0 c 2.755,0.005 5.011,2.263 5.016,5.016 l 0,5.271 C 78.365,2.755 76.111,5.01 73.354,5.017 l -68.339,0 C 2.259,5.01 0.004,2.755 0,0 m 5.015,-11.213 c -3.272,0.003 -5.942,2.674 -5.944,5.944 l 0,5.269 c 0.002,3.272 2.672,5.942 5.944,5.944 l 68.339,0 c 3.274,-0.002 5.942,-2.672 5.943,-5.942 l 0,-5.271 c -10e-4,-3.27 -2.669,-5.942 -5.943,-5.944 l -68.339,0"
                   style="fill:#fccf34;fill-opacity:1;fill-rule:nonzero;stroke:none"
                   id="path4153" />
              </g>
            </g>
          </g>
        </g>
        <g
           id="g4157">
          <g
             id="g4163">
            <g
               id="g4165">
              <path
                 id="path4175"
                 style="fill:url(#linearGradient5497);stroke:none"
                 d="m 74.135,1426.267 c -0.898,0 -0.932,-0.096 -1.392,-0.933 l 0,0 c -0.675,-1.241 -2.292,-4.346 -2.292,-4.346 l 0,0 c 0,0 -0.516,3.078 -0.753,4.346 l 0,0 c -0.176,0.899 -0.266,0.933 -0.987,0.933 l 0,0 c -0.06,0 -0.124,0 -0.193,0 l 0,0 -0.392,0 -0.224,0 -1.045,-5.859 c -0.181,-1.024 -0.091,-1.065 1.068,-1.065 l 0,0 0.842,4.737 0.863,-4.737 0.584,0 c 0.305,0 0.45,0.026 0.585,0.134 l 0,0 c 0.18,0.149 0.36,0.513 0.46,0.717 l 0,0 2.079,3.886 -0.651,-3.672 c -0.102,-0.591 -0.192,-0.998 0.358,-1.051 l 0,0 c 0.145,-0.014 0.337,-0.014 0.72,-0.014 l 0,0 1.235,6.924 -0.865,0 z"
                 inkscape:connector-curvature="0" />
            </g>
          </g>
        </g>
        <g
           id="g4177">
          <g
             id="g4179">
            <g
               id="g4185">
              <g
                 id="g4187">
                <path
                   id="path4197"
                   style="fill:url(#linearGradient5499);stroke:none"
                   d="m 81.873,1426.267 c -0.741,0 -0.807,-0.042 -1.211,-0.851 l 0,0 -3.056,-6.073 c 1.415,0 1.381,-0.041 1.796,0.798 l 0,0 0.236,0.484 2.618,0 0.067,-0.484 c 0.078,-0.515 0.1,-0.743 0.641,-0.784 l 0,0 c 0.157,-0.014 0.29,-0.014 0.751,-0.014 l 0,0 -1.091,6.924 -0.751,0 z m -0.168,-1.311 0.404,-3.185 -1.931,0 1.527,3.185 z"
                   inkscape:connector-curvature="0" />
              </g>
            </g>
          </g>
        </g>
        <g
           id="g4199">
          <g
             id="g4201">
            <g
               id="g4207">
              <g
                 id="g4209">
                <path
                   id="path4219"
                   style="fill:url(#linearGradient5501);stroke:none"
                   d="m 90.856,1426.267 c -1.684,0 -2.607,-0.771 -2.819,-2.079 l 0,0 c -0.258,-1.634 1.101,-1.701 2.066,-1.943 l 0,0 c 0.36,-0.095 1.021,-0.338 0.921,-0.919 l 0,0 c -0.022,-0.122 -0.079,-0.555 -0.214,-0.633 l 0,0 c -0.179,-0.095 -0.977,-0.068 -1.157,-0.068 l 0,0 -1.122,0 c -0.45,0 -0.687,-0.027 -0.821,-0.176 l 0,0 c -0.133,-0.133 -0.213,-0.406 -0.334,-1.118 l 0,0 2.077,0 c 1.875,0 2.649,1.023 2.829,2.062 l 0,0 c 0.349,1.958 -1.538,1.808 -2.583,2.23 l 0,0 c -0.327,0.133 -0.427,0.361 -0.393,0.578 l 0,0 c 0.024,0.109 0.078,0.633 0.224,0.715 l 0,0 c 0.169,0.109 0.91,0.081 1.067,0.081 l 0,0 1.214,0 c 0.853,0 0.919,0.083 1.137,1.27 l 0,0 -2.092,0 z"
                   inkscape:connector-curvature="0" />
              </g>
            </g>
          </g>
        </g>
        <g
           id="g4221">
          <g
             id="g4223">
            <g
               id="g4229">
              <g
                 id="g4231">
                <path
                   id="path4241"
                   style="fill:url(#linearGradient5503);stroke:none"
                   d="m 97.413,1426.253 c -0.82,0 -0.877,-0.094 -1.09,-1.256 l 0,0 1.652,0 -0.809,-4.575 c -0.18,-1.038 -0.1,-1.079 1.055,-1.079 l 0,0 1,5.654 0.731,0 c 0.448,0 0.686,0.028 0.819,0.161 l 0,0 c 0.102,0.097 0.145,0.23 0.191,0.379 l 0,0 c 0.035,0.134 0.067,0.311 0.135,0.716 l 0,0 -3.684,0 z"
                   inkscape:connector-curvature="0" />
              </g>
            </g>
          </g>
        </g>
        <g
           id="g4243">
          <g
             id="g4245">
            <g
               id="g4251">
              <g
                 id="g4253">
                <path
                   id="path4263"
                   style="fill:url(#linearGradient5505);stroke:none"
                   d="m 106.216,1426.253 c -1.032,0 -1.123,-0.04 -1.309,-1.107 l 0,0 -0.835,-4.697 c -0.045,-0.283 -0.168,-0.756 0,-0.958 l 0,0 c 0.17,-0.189 0.685,-0.148 0.922,-0.148 l 0,0 3.157,0 c 0.055,0.27 0.213,0.877 0.044,1.106 l 0,0 c -0.101,0.123 -0.337,0.149 -0.829,0.149 l 0,0 -2.012,0 0.29,1.647 2.743,0 c 0.043,0.256 0.201,0.863 0.056,1.079 l 0,0 c -0.089,0.135 -0.314,0.162 -0.776,0.162 l 0,0 -1.797,0 0.259,1.511 3.02,0 c 0.056,0.258 0.205,0.878 0.056,1.093 l 0,0 c -0.088,0.135 -0.312,0.163 -0.775,0.163 l 0,0 -2.214,0 z"
                   inkscape:connector-curvature="0" />
              </g>
            </g>
          </g>
        </g>
        <g
           id="g4265">
          <g
             id="g4267">
            <g
               id="g4273">
              <g
                 id="g4275">
                <path
                   id="path4285"
                   style="fill:url(#linearGradient5507);stroke:none"
                   d="m 114.743,1426.253 c -0.259,0 -0.448,0 -0.585,-0.015 l 0,0 c -0.617,-0.067 -0.638,-0.525 -0.74,-1.08 l 0,0 -0.833,-4.722 c -0.099,-0.541 -0.109,-0.81 0,-0.945 l 0,0 c 0.194,-0.203 0.833,-0.148 1.067,-0.148 l 0,0 0.495,2.753 0.518,2.914 0.953,0 c 1.101,0 1.114,-0.54 1.046,-0.972 l 0,0 c -0.035,-0.16 -0.113,-0.756 -0.271,-0.875 l 0,0 c -0.179,-0.134 -0.483,-0.109 -1.101,-0.109 l 0,0 -0.357,0 c -0.54,0 -0.695,-0.673 -0.518,-1.01 l 0,0 1.079,-1.932 c 0.347,-0.621 0.493,-0.755 1.155,-0.769 l 0,0 0.866,0 -1.684,2.551 c 0.886,0 1.83,0.567 2.111,2.144 l 0,0 c 0.157,0.934 0.112,2.215 -2.145,2.215 l 0,0 -1.056,0 z"
                   inkscape:connector-curvature="0" />
              </g>
            </g>
          </g>
        </g>
        <g
           id="g4287">
          <g
             id="g4289">
            <g
               id="g4295">
              <g
                 id="g4297">
                <path
                   id="path4307"
                   style="fill:url(#linearGradient5509);stroke:none"
                   d="m 124.738,1426.267 c -1.684,0 -2.603,-0.771 -2.818,-2.079 l 0,0 c -0.259,-1.634 1.1,-1.701 2.068,-1.943 l 0,0 c 0.358,-0.095 1.023,-0.338 0.921,-0.919 l 0,0 c -0.025,-0.122 -0.081,-0.551 -0.215,-0.633 l 0,0 c -0.179,-0.095 -0.977,-0.067 -1.157,-0.067 l 0,0 -1.124,0 c -0.446,0 -0.683,-0.028 -0.819,-0.177 l 0,0 c -0.134,-0.133 -0.213,-0.406 -0.337,-1.118 l 0,0 2.079,0 c 1.875,0 2.65,1.023 2.831,2.064 l 0,0 c 0.347,1.956 -1.54,1.806 -2.584,2.228 l 0,0 c -0.327,0.133 -0.428,0.361 -0.394,0.578 l 0,0 c 0.022,0.109 0.079,0.633 0.226,0.715 l 0,0 c 0.168,0.109 0.908,0.081 1.066,0.081 l 0,0 1.211,0 c 0.855,0 0.923,0.083 1.138,1.27 l 0,0 -2.092,0 z"
                   inkscape:connector-curvature="0" />
              </g>
            </g>
          </g>
        </g>
      </g>
      <g
         id="g4309">
        <g
           id="g4311">
          <g
             id="g4317">
            <g
               id="g4319">
              <path
                 inkscape:connector-curvature="0"
                 d="m 62.636,1414.95 c -3.013,0 -5.479,-2.466 -5.479,-5.479 l 0,0 0,-80.278 c 0,-3.013 2.466,-5.478 5.479,-5.478 l 0,0 68.34,0 c 3.015,0 5.48,2.465 5.48,5.478 l 0,0 0,80.278 c 0,3.013 -2.465,5.479 -5.48,5.479 l 0,0 -68.34,0 z"
                 style="fill:url(#linearGradient5511);stroke:none"
                 id="path4329" />
            </g>
          </g>
        </g>
      </g>
      <g
         id="g4331">
        <g
           id="g4333"
           clip-path="url(#clipPath4335)">
          <g
             id="g4339"
             transform="translate(57.5644,1409.4707)">
            <path
               inkscape:connector-curvature="0"
               d="m 0,0 0,-80.277 c 0.006,-2.786 2.285,-5.065 5.073,-5.071 l 68.338,0 c 2.788,0.006 5.066,2.285 5.072,5.071 l 0,80.277 c -0.006,2.786 -2.284,5.067 -5.072,5.071 l -68.338,0 C 2.285,5.067 0.006,2.786 0,0 m 5.073,-86.164 c -3.242,0.001 -5.887,2.647 -5.888,5.887 l 0,80.277 c 0.001,3.24 2.646,5.886 5.888,5.888 l 68.338,0 C 76.653,5.886 79.297,3.242 79.299,0 l 0,-80.277 c -0.002,-3.24 -2.646,-5.886 -5.888,-5.887 l -68.338,0"
               style="fill:#231f20;fill-opacity:1;fill-rule:nonzero;stroke:none"
               id="path4341" />
          </g>
          <g
             id="g4343"
             transform="translate(98.2462,1404.1317)">
            <path
               inkscape:connector-curvature="0"
               d="M 0,0 C 0.85,4.051 0.799,4.074 3.568,4.074 5.87,4.074 6.014,2.67 5.456,-0.023 4.587,-4.05 4.657,-4.073 1.843,-4.073 -0.413,-4.073 -0.583,-2.668 0,0 m 1.358,-6.354 c 4.465,0 6.063,2.765 6.839,6.331 C 8.948,3.59 8.514,6.356 4.048,6.356 -0.362,6.356 -1.987,3.59 -2.74,0 -3.516,-3.589 -3.081,-6.354 1.358,-6.354 M 12.318,0 c 0.851,4.051 0.806,4.074 3.569,4.074 2.302,0 2.448,-1.404 1.891,-4.097 -0.873,-4.027 -0.801,-4.05 -3.614,-4.05 -2.255,0 -2.425,1.405 -1.846,4.073 m 1.362,-6.354 c 4.46,0 6.063,2.765 6.839,6.331 C 21.27,3.59 20.835,6.356 16.37,6.356 11.957,6.356 10.331,3.59 9.581,0 8.806,-3.589 9.24,-6.354 13.68,-6.354 m -21.199,0.169 c 0.315,-0.024 0.728,-0.024 1.575,-0.024 L -3.712,4.39 c 0.39,1.82 0.414,1.82 -2.304,1.82 C -6.258,5.071 -6.282,5.118 -7.713,5.118 l -0.509,-2.231 1.431,0 -1.478,-7.133 C -8.49,-5.238 -8.78,-6.063 -7.519,-6.185 M 24.639,0 c 0.853,4.051 0.801,4.074 3.565,4.074 2.305,0 2.453,-1.404 1.895,-4.097 -0.876,-4.027 -0.801,-4.05 -3.617,-4.05 -2.25,0 -2.42,1.405 -1.843,4.073 m 1.359,-6.354 c 4.462,0 6.063,2.765 6.84,6.331 0.754,3.613 0.312,6.379 -4.147,6.379 -4.414,0 -6.038,-2.766 -6.792,-6.356 -0.772,-3.589 -0.337,-6.354 4.099,-6.354 m -55.79,-8.299 -0.302,0.201 c 0.056,0.627 -0.578,1.101 -0.578,1.101 l 0.006,0.78 c 0.01,0.331 0.018,0.634 0.013,0.912 -0.005,0.267 0.015,0.459 0.015,0.625 -0.002,0.135 0.082,0.165 0.164,0.157 0.098,-0.008 0.513,-0.407 0.513,-0.407 0.252,-0.231 0.462,-0.413 1.047,-0.732 0.644,-0.35 0.852,-0.343 1.197,-0.363 0.166,-0.009 0.303,-0.009 0.424,-0.028 0.111,-0.023 0.197,-0.059 0.28,-0.14 0.043,-0.042 0.054,-0.107 -0.023,-0.233 -0.076,-0.126 -0.218,-0.279 -0.412,-0.457 -0.036,-0.034 -1.101,-0.916 -1.639,-1.416 l -0.705,0 z m 0.136,14.83 c 0.778,1.936 3.604,7.362 7.898,5.415 3.803,-1.727 3.543,-7.04 2.017,-10.35 -2.219,-4.81 -5.646,-7.879 -8.868,-6.091 -3.44,1.911 -2.278,7.974 -1.047,11.026 m 62.861,-18.963 c -0.115,0.443 -0.795,0.676 -0.795,0.676 -0.019,0.542 -0.774,0.715 -0.774,0.715 l -0.034,0.058 c -0.159,0.602 -0.835,0.464 -0.835,0.464 l 0,0.138 c -0.114,0.403 -0.752,0.269 -0.752,0.269 -0.291,0.485 -0.853,0.058 -0.853,0.058 -0.154,-0.327 -0.523,-0.327 -0.523,-0.327 -0.83,-0.04 -0.908,-0.485 -0.908,-0.485 l -0.212,-0.639 c -0.525,-1.082 -0.233,-1.508 -0.233,-1.508 0.194,-0.387 0.271,-0.619 0.271,-0.619 0.116,-0.89 0.389,-1.566 0.389,-1.566 -0.447,-0.079 -0.523,-0.621 -0.523,-0.621 -0.137,-0.502 -1.663,-2.157 -1.663,-2.157 -0.408,-0.212 -0.117,-0.734 -0.117,-0.734 -1.45,-1.409 -2.204,-1.827 -2.204,-1.827 -3.037,-1.936 -5.378,-4.622 -5.378,-4.622 -1.896,0.385 -4.316,-0.136 -4.316,-0.136 l -0.018,0.27 c -1.296,-0.289 -2.783,-1.083 -2.783,-1.083 -0.369,-0.175 -0.949,-0.019 -0.949,-0.019 -2.05,1.084 -5.727,0.754 -5.727,0.754 -1.854,-0.445 -2.319,-0.638 -2.319,-0.638 l -3.59,-0.16 -0.219,0.61 c -0.07,0.174 -0.345,0.276 -0.345,0.276 l -0.039,0 c 0,0.218 -0.032,0.416 -0.08,0.609 l -0.085,2.191 0.913,1.198 c 0.277,-0.022 -0.212,2.969 -0.212,2.969 0.084,0.458 -0.678,2.157 -0.678,2.157 0.24,1.273 -0.693,2.159 -0.693,2.159 0,0 -0.528,0.668 -0.631,1.102 -0.105,0.433 -1.425,1.141 -2.334,1.453 -0.907,0.316 -2.562,-0.005 -4.492,-1.25 -1.922,-1.239 -2.281,-3.818 -2.281,-4.204 0,-0.389 0.7,-2.328 0.615,-2.349 -0.084,-0.021 -0.433,0.118 -0.164,-0.982 0.271,-1.099 1.613,-1.935 1.613,-1.935 0.288,-0.093 0.843,-2.018 1.067,-2.83 l -0.252,-0.103 -0.204,-0.389 -0.463,-0.35 c -0.182,-0.053 -0.589,-0.088 -1.084,-0.11 -0.46,0.134 -2.351,0.595 -5.215,0.136 l -2.816,1.419 -0.19,-0.288 c -0.738,0.226 -1.61,0.38 -2.541,0.306 0,0 -2.015,4.054 -3.864,5.493 l -0.016,0.146 c 0.005,0.003 0.011,0.006 0.014,0.007 0.16,0.107 0,0.533 0,0.746 0,0.212 -0.576,0.867 -0.576,0.867 l -0.798,1.28 c 0,0 -0.268,0.638 -0.374,1.012 -0.104,0.374 -0.421,0.159 -0.421,0.159 -0.151,0.422 -0.192,0.863 -0.051,0.974 0.139,0.114 0.829,2.678 0.87,3.041 0.039,0.357 -0.639,1.717 -0.741,2.045 0.818,0.724 2.369,2.076 2.767,2.31 3.087,1.817 5.766,4.207 7.039,7.632 1.991,5.366 1.008,9.972 -2.481,11.731 l -0.134,0.069 -0.169,0.085 -0.149,0.069 c -3.317,1.127 -7.106,-0.775 -9.447,-5.953 -1.501,-3.317 -1.571,-6.844 -0.758,-10.56 0.173,-0.784 0.236,-2.022 0.17,-3.301 l 0.002,0 -0.011,-0.231 -0.963,-0.162 c -0.391,-0.181 -0.291,-0.448 -0.291,-0.448 l 0.25,-1.458 -0.044,-0.055 c -0.181,-0.038 -0.442,-0.167 -0.469,-0.581 l -0.041,-0.052 c -0.502,-0.088 -0.472,-0.845 -0.472,-0.845 -0.705,-0.217 -0.456,-0.858 -0.456,-0.858 -0.515,-0.34 -0.08,-0.807 0.067,-1.053 0.146,-0.251 0.822,-1.765 0.822,-1.765 l -0.762,-2.054 c -0.985,-2.39 -1.97,-4.766 -1.971,-4.768 -0.038,-0.089 -0.093,-0.142 -0.147,-0.182 l -0.111,-0.066 c -0.028,-0.022 -0.082,-0.068 -0.112,-0.286 0.11,-0.192 0.511,-0.464 1.063,-0.72 0.542,-0.275 0.761,-0.315 0.952,-0.277 0.127,0.163 0.127,0.239 0.124,0.284 -0.003,0.048 -0.015,0.088 -0.02,0.131 -0.008,0.062 -0.007,0.137 0.028,0.224 10e-4,0 0.749,1.842 1.592,3.912 l 0.009,-0.008 0.624,1.457 0.134,-0.175 c -0.044,-0.016 -0.203,-0.096 -0.119,-0.32 0.097,-0.259 0.097,-0.389 0.227,-0.518 0.131,-0.128 0.195,-0.195 0.26,-0.453 0.064,-0.261 0.014,-0.682 0.098,-0.811 0.025,-0.041 0.089,-0.137 0.165,-0.25 0.043,-0.284 0.193,-0.556 0.254,-0.976 0.049,-0.343 0.199,-0.276 0.199,-0.276 0,0 0.029,0.01 0.073,0.025 0.716,-1.74 2.562,-6.738 5.187,-9.168 0,0 1.03,-0.187 1.925,-0.83 l -0.056,-0.084 -0.198,-0.33 c 0,0 0.662,-0.333 1.192,-0.664 0.498,-0.313 2.831,-1.69 4.149,-2.23 l 0.718,-3.728 0.328,0 c -5.919,-1.572 -11.325,-3.974 -15.964,-7.039 9.088,4.202 20.129,6.663 32.038,6.663 11.908,0 22.95,-2.461 32.038,-6.665 -6.816,4.505 -15.283,7.59 -24.614,8.672 0.681,1.401 2.106,2.065 2.106,2.065 0.486,0.329 4.683,0.792 4.683,0.792 l -0.021,0.328 c 5.203,1.162 7.776,3.114 7.776,3.114 1.045,0.176 1.16,0.445 1.16,0.445 0.138,0.195 0.735,0.657 0.735,0.657 2.98,2.014 6.134,7.59 6.134,7.59 0.656,-0.213 0.83,0.425 0.83,0.425 0.252,0.348 1.703,2.22 1.703,2.22 0.426,0.386 0.173,0.694 0.173,0.694 l -0.212,0.271 0.077,0.079 c 0.193,0.211 0.445,0.947 0.58,1.101 0.135,0.156 0.559,1.084 0.559,1.084 0.079,0.291 0.542,1.217 0.542,1.217 0.385,0.486 0.253,1.028 0.253,1.028 m -39.188,-55.66 -1.522,0 0.962,3.368 c 0.12,0.396 0.135,0.594 0,0.694 -0.215,0.148 -0.976,0.11 -1.272,0.11 l -1.228,-4.29 c -0.228,-0.794 -0.041,-0.794 1.041,-0.794 l 2.847,0 c 0.054,0.188 0.24,0.635 0.067,0.785 -0.104,0.097 -0.36,0.127 -0.895,0.127 m 34.193,4.172 -1.256,0 c -0.306,0 -0.532,0 -0.693,-0.01 -0.737,-0.049 -0.763,-0.387 -0.882,-0.794 l -0.99,-3.476 c -0.121,-0.399 -0.133,-0.597 0,-0.697 0.228,-0.148 0.99,-0.107 1.269,-0.107 l 0.59,2.025 0.614,2.144 1.136,0 c 1.308,0 1.323,-0.396 1.243,-0.714 -0.04,-0.118 -0.135,-0.555 -0.322,-0.646 -0.212,-0.097 -0.572,-0.079 -1.307,-0.079 l -0.429,0 c -0.639,0 -0.828,-0.497 -0.614,-0.745 l 1.281,-1.42 c 0.417,-0.458 0.589,-0.556 1.377,-0.565 l 1.029,0 -2.003,1.876 c 1.053,0 2.177,0.418 2.511,1.579 0.186,0.686 0.132,1.629 -2.554,1.629 m -12.713,-2.552 c -0.481,-1.65 -0.465,-1.66 -2.378,-1.66 -1.55,0 -1.698,0.687 -1.418,1.67 0.47,1.659 0.456,1.667 2.366,1.667 1.578,0 1.712,-0.684 1.43,-1.677 m -1.162,2.611 c -2.752,0 -3.781,-1.243 -4.169,-2.601 -0.386,-1.362 -0.082,-2.603 2.687,-2.603 2.778,0 3.782,1.241 4.169,2.593 0.388,1.368 0.093,2.611 -2.687,2.611 m -26.263,-0.059 -1.257,0 c -0.307,0 -0.534,0 -0.696,-0.01 -0.736,-0.049 -0.761,-0.387 -0.882,-0.794 l -0.989,-3.476 c -0.121,-0.399 -0.132,-0.597 0,-0.697 0.228,-0.148 0.989,-0.107 1.269,-0.107 l 0.588,2.025 0.615,2.144 1.136,0 c 1.312,0 1.324,-0.396 1.244,-0.714 -0.04,-0.118 -0.135,-0.555 -0.322,-0.646 -0.211,-0.097 -0.574,-0.079 -1.308,-0.079 l -0.429,0 c -0.641,0 -0.828,-0.497 -0.614,-0.745 l 1.283,-1.42 c 0.414,-0.458 0.587,-0.556 1.377,-0.565 l 1.027,0 -2.004,1.875 c 1.058,0 2.179,0.419 2.514,1.58 0.185,0.686 0.133,1.629 -2.552,1.629 m 36.355,-0.1 c -0.217,0.148 -0.988,0.111 -1.271,0.111 l -1.187,-4.132 -1.552,0 c -1.269,0 -1.444,0.396 -1.176,1.369 l 0.587,2.036 c 0.108,0.357 0.108,0.536 -0.041,0.628 -0.212,0.126 -1,0.099 -1.268,0.099 l -0.803,-2.801 c -0.466,-1.639 0.241,-2.294 2.418,-2.294 l 1.726,0 c 0.307,0 0.536,0 0.708,0.009 0.387,0.028 0.614,0.118 0.749,0.396 0.052,0.11 0.093,0.25 0.147,0.439 l 0.988,3.475 c 0.108,0.386 0.124,0.567 -0.025,0.665 M 0.968,-72.777 c -0.481,-1.68 -0.481,-1.68 -2.622,-1.68 l -0.948,0 0.937,3.268 1.013,0 c 1.404,0 1.965,-0.337 1.62,-1.588 m -1.098,2.503 -1.442,0 c -1.215,0 -1.339,-0.018 -1.565,-0.804 l -0.762,-2.653 -0.239,-0.842 c -0.054,-0.199 -0.188,-0.537 0.013,-0.687 0.134,-0.089 0.455,-0.11 1.097,-0.11 l 1.335,0 c 2.18,0 3.674,0.995 4.141,2.584 0.456,1.608 -0.415,2.512 -2.578,2.512 M -24.676,-71 -26.679,-73.979 -27.066,-71 c -0.041,0.219 -0.041,0.516 -0.309,0.638 -0.293,0.126 -1.094,0.099 -1.443,0.099 l -2.605,-3.716 -0.308,2.979 c -0.012,0.209 -0.012,0.516 -0.266,0.638 -0.269,0.136 -1.016,0.099 -1.338,0.099 l 0.736,-5.095 0.615,0 c 1.054,0 1.081,0.048 1.576,0.743 l 2.058,2.95 0.495,-3.693 0.789,0 c 0.253,0 0.587,-0.021 0.827,0.107 0.175,0.1 0.322,0.279 0.575,0.636 l 3.101,4.352 c -1.617,0 -1.603,0.01 -2.113,-0.737 m 35.232,0.198 c 0.039,0.103 0.079,0.23 0.16,0.528 l -4.383,0 c -0.977,0 -1.042,-0.07 -1.298,-0.924 l 1.967,0 -0.965,-3.366 c -0.213,-0.764 -0.119,-0.794 1.257,-0.794 l 1.189,4.16 0.87,0 c 0.535,0 0.814,0.02 0.974,0.12 0.123,0.068 0.174,0.169 0.229,0.276 m -28.343,-2.024 c -0.48,-1.65 -0.466,-1.66 -2.377,-1.66 -1.551,0 -1.698,0.687 -1.416,1.669 0.466,1.659 0.453,1.668 2.365,1.668 1.577,0 1.711,-0.684 1.428,-1.677 m -1.162,2.611 c -2.751,0 -3.781,-1.243 -4.169,-2.602 -0.388,-1.361 -0.079,-2.602 2.687,-2.602 2.78,0 3.781,1.241 4.17,2.593 0.386,1.368 0.092,2.611 -2.688,2.611 m 36.442,16.172 3.858,0 c 4.431,0 4.388,-1.418 4.031,-2.57 -0.75,-2.733 -0.795,-2.7 -5.45,-2.7 l -3.943,0 1.504,5.27 z M 9.294,-67.514 c 0.754,-0.493 3.283,-0.362 4.213,-0.362 l 0.795,2.703 0.845,2.895 3.989,0 c 9.131,0 10.681,3.327 11.344,5.665 0.709,2.404 0.667,5.599 -8.374,5.599 l -4.301,0 c -1.021,0 -1.771,0 -2.303,-0.032 -2.439,-0.164 -2.528,-1.287 -2.925,-2.636 L 9.294,-65.173 c -0.399,-1.353 -0.441,-1.979 0,-2.341 m -32.479,5.565 6.029,7.774 1.596,-7.774 -7.625,0 z m 6.691,10.969 c -2.923,0 -3.19,-0.098 -4.784,-2.075 l -12.057,-14.821 c 5.587,0 5.453,-0.1 7.093,1.944 l 0.93,1.187 10.327,0 0.266,-1.187 c 0.309,-1.255 0.399,-1.813 2.526,-1.913 0.621,-0.031 1.153,-0.031 2.969,-0.031 l -4.298,16.896 -2.972,0 z M 9.56,-53.682 c 0.401,0.233 0.58,0.559 0.756,0.923 0.133,0.328 0.265,0.757 0.532,1.745 l -14.537,0 c -3.237,0 -3.46,-0.231 -4.3,-3.063 l 6.517,0 -3.192,-11.164 c -0.71,-2.537 -0.402,-2.635 4.164,-2.635 l 3.946,13.799 2.88,0 c 1.775,0 2.705,0.067 3.234,0.395"
               style="fill:#231f20;fill-opacity:1;fill-rule:nonzero;stroke:none"
               id="path4345" />
          </g>
          <g
             id="g4347"
             transform="translate(128.4202,1337.467)">
            <path
               inkscape:connector-curvature="0"
               d="m 0,0 -0.529,0 0.066,0.315 1.407,0 L 0.878,0 0.373,0 0.084,-1.389 l -0.371,0 L 0,0 z"
               style="fill:#231f20;fill-opacity:1;fill-rule:nonzero;stroke:none"
               id="path4349" />
          </g>
          <g
             id="g4351"
             transform="translate(129.5541,1337.7821)">
            <path
               inkscape:connector-curvature="0"
               d="m 0,0 0.512,0 0.13,-1.234 0.005,0 L 1.296,0 1.814,0 1.457,-1.704 l -0.347,0 0.306,1.355 -0.004,0 -0.712,-1.355 -0.285,0 -0.163,1.355 -0.004,0 -0.252,-1.355 -0.353,0 L 0,0 z"
               style="fill:#231f20;fill-opacity:1;fill-rule:nonzero;stroke:none"
               id="path4353" />
          </g>
        </g>
      </g>
    </g>
  </g>
</svg>
