<?xml version="1.0" encoding="UTF-8" standalone="no"?>
<!-- Created with Inkscape (http://www.inkscape.org/) -->

<svg
   xmlns:svg="http://www.w3.org/2000/svg"
   xmlns="http://www.w3.org/2000/svg"
   xmlns:sodipodi="http://sodipodi.sourceforge.net/DTD/sodipodi-0.dtd"
   xmlns:inkscape="http://www.inkscape.org/namespaces/inkscape"
   width="316.227766017"
   height="316.227766017" viewBox="0 0 350.0 350.0"
   id="svg4089"
   version="1.1"
   inkscape:version="0.48.2 r9819"
   sodipodi:docname="Logo Roland Garros.svg">
  <defs
     id="defs4091" />
  <sodipodi:namedview
     id="base"
     pagecolor="#ffffff"
     bordercolor="#666666"
     borderopacity="1.0"
     inkscape:pageopacity="0.0"
     inkscape:pageshadow="2"
     inkscape:zoom="0.98994949"
     inkscape:cx="172.55352"
     inkscape:cy="137.41458"
     inkscape:document-units="px"
     inkscape:current-layer="layer1"
     showgrid="false"
     fit-margin-top="0"
     fit-margin-right="0"
     fit-margin-bottom="0"
     fit-margin-left="0"
     inkscape:window-width="1366"
     inkscape:window-height="706"
     inkscape:window-x="-8"
     inkscape:window-y="-8"
     inkscape:window-maximized="1" />
  <metadata
     id="metadata4094" />
  <g
     inkscape:label="Logo Roland-Garros depuis 2009 (inclus)"
     inkscape:groupmode="layer"
     id="layer1"
     transform="translate(-307.39992,-179.17721)">
    <g
       id="g3320">
      <g
         id="g62272"
         transform="matrix(3.454061,0,0,-3.454061,657.39992,354.17721)">
        <path
           inkscape:connector-curvature="0"
           d="m 0,0 c 0,-27.981 -22.684,-50.665 -50.666,-50.665 -27.981,0 -50.664,22.684 -50.664,50.665 0,27.981 22.683,50.665 50.664,50.665 C -22.684,50.665 0,27.981 0,0"
           style="fill:#05482f;fill-opacity:1;fill-rule:nonzero;stroke:none"
           id="path62274" />
      </g>
      <g
         id="g62276"
         transform="matrix(3.454061,0,0,-3.454061,482.39793,518.81226)">
        <path
           inkscape:connector-curvature="0"
           d="M 0,0 C -26.315,0 -47.65,21.335 -47.65,47.651 -47.65,73.968 -26.315,95.3 0,95.3 26.318,95.3 47.652,73.968 47.652,47.651 47.652,21.335 26.318,0 0,0 m 0,96.501 c -26.978,0 -48.85,-21.871 -48.85,-48.848 0,-26.982 21.872,-48.852 48.85,-48.852 26.98,0 48.851,21.87 48.851,48.852 C 48.851,74.63 26.98,96.501 0,96.501"
           style="fill:#ffffff;fill-opacity:1;fill-rule:nonzero;stroke:none"
           id="path62278" />
      </g>
      <g
         id="g62280"
         transform="matrix(3.454061,0,0,-3.454061,585.38797,354.58029)">
        <path
           inkscape:connector-curvature="0"
           d="m 0,0 c 0,-16.465 -13.349,-29.812 -29.815,-29.812 -16.466,0 -29.816,13.347 -29.816,29.812 0,16.467 13.35,29.816 29.816,29.816 C -13.349,29.816 0,16.467 0,0"
           style="fill:#ffffff;fill-opacity:1;fill-rule:nonzero;stroke:none"
           id="path62282" />
      </g>
      <g
         id="g62284"
         transform="matrix(3.454061,0,0,-3.454061,392.63269,440.03552)">
        <path
           inkscape:connector-curvature="0"
           d="M 0,0 0.404,0.28 C 1.08,-0.448 2.691,-1.907 2.691,-1.907 3.865,-2.961 3.858,-4.097 3.219,-4.81 2.506,-5.606 1.144,-5.9 -0.154,-4.735 c -0.105,0.093 -0.23,0.206 -0.336,0.34 l 0.33,0.496 c 0.733,-0.656 1.595,-0.371 2.082,0.174 0.397,0.441 0.432,1.062 -0.261,1.681 l -0.377,0.337 -3.912,-4.356 c -0.345,0.322 -0.776,0.737 -1.079,1.034 L 0.253,-0.605 0,0 z"
           style="fill:#ffffff;fill-opacity:1;fill-rule:nonzero;stroke:none"
           id="path62286" />
      </g>
      <g
         id="g62288"
         transform="matrix(3.454061,0,0,-3.454061,427.87312,480.68391)">
        <path
           inkscape:connector-curvature="0"
           d="M 0,0 1.865,-0.717 1.82,1.051 c -0.007,0.606 0.088,1.17 0.088,1.17 L 1.882,2.234 c 0,0 -0.333,-0.478 -0.709,-0.905 L 0,0 z m 1.888,-1.6 -2.471,0.949 -0.971,-1.136 -0.995,0.464 4.788,5.144 1.075,-0.426 0.348,-6.386 0.503,-0.493 -0.193,-0.349 c -0.646,0.18 -1.535,0.481 -2.033,0.65 L 1.888,-1.6 z"
           style="fill:#ffffff;fill-opacity:1;fill-rule:nonzero;stroke:none"
           id="path62290" />
      </g>
      <g
         id="g62292"
         transform="matrix(3.454061,0,0,-3.454061,475.87802,478.2557)">
        <path
           inkscape:connector-curvature="0"
           d="M 0,0 0.111,0.477 C 1.041,0.429 3.219,0.466 3.219,0.466 4.713,0.462 5.473,-0.517 5.473,-1.39 5.473,-2.207 5.05,-2.994 3.952,-3.444 L 6.028,-6.012 C 5.317,-6.073 4.74,-6.116 4.125,-6.156 l -1.665,2.629 0.084,0.451 c 0.929,0.195 1.297,0.901 1.297,1.574 0.002,0.534 -0.365,1.128 -1.238,1.13 l -0.506,0 L 2.091,-6.208 0.599,-6.206 0.591,-0.282 0,0 z"
           style="fill:#ffffff;fill-opacity:1;fill-rule:nonzero;stroke:none"
           id="path62294" />
      </g>
      <g
         id="g62296"
         transform="matrix(3.454061,0,0,-3.454061,542.01707,486.98204)">
        <path
           inkscape:connector-curvature="0"
           d="M 0,0 C -0.49,-0.218 -0.909,-0.396 -1.395,-0.598 L -3.771,4.82 -4.423,4.841 -4.511,5.324 c 0.637,0.258 1.202,0.492 1.836,0.77 L 0,0 z"
           style="fill:#ffffff;fill-opacity:1;fill-rule:nonzero;stroke:none"
           id="path62298" />
      </g>
      <g
         id="g62300"
         transform="matrix(3.454061,0,0,-3.454061,571.55131,446.1927)">
        <path
           inkscape:connector-curvature="0"
           d="m 0,0 -0.971,0.38 c -0.188,-0.135 -0.301,-0.225 -0.464,-0.419 -0.328,-0.386 -0.524,-0.92 -0.073,-1.303 1.073,-0.91 2.917,1.439 4.57,0.038 C 4.007,-2.105 3.694,-3.389 2.929,-4.291 2.437,-4.873 1.676,-5.334 1.096,-5.542 l -0.513,0.877 c 0.8,0.243 1.336,0.529 1.755,1.022 0.272,0.322 0.398,0.733 0.034,1.042 -1.032,0.875 -2.924,-1.359 -4.535,0.007 -1.031,0.874 -0.677,2.161 0.123,3.106 0.4,0.471 0.872,0.81 1.332,1.047 L 0.374,0.531 0,0 z"
           style="fill:#ffffff;fill-opacity:1;fill-rule:nonzero;stroke:none"
           id="path62302" />
      </g>
      <g
         id="g62304"
         transform="matrix(3.454061,0,0,-3.454061,337.57396,389.37517)">
        <path
           inkscape:connector-curvature="0"
           d="m 0,0 -0.613,0.097 c -0.151,0.514 -0.726,3.427 -0.848,4.827 -0.205,1.995 0.932,3.201 2.22,3.359 1.117,0.138 2.375,-0.501 3.066,-2.108 l 4.544,4.109 C 8.373,9.302 8.414,8.323 8.469,7.586 L 4.196,4.206 3.567,4.278 C 3.183,5.646 2.148,6.226 1.22,6.111 0.395,6.01 -0.351,5.275 -0.196,4.03 L -0.057,2.91 8.93,4.032 C 9.015,3.561 9.194,2.686 9.333,2.163 L 0.341,1.049 0,0 z"
           style="fill:#ffffff;fill-opacity:1;fill-rule:nonzero;stroke:none"
           id="path62306" />
      </g>
      <g
         id="g62308"
         transform="matrix(3.454061,0,0,-3.454061,364.46104,336.39126)">
        <path
           inkscape:connector-curvature="0"
           d="M 0,0 C 0.333,1.909 -0.697,3.574 -3.461,4.055 -6.039,4.501 -7.666,3.209 -8,1.28 -8.34,-0.669 -7.322,-2.27 -4.639,-2.735 -2.061,-3.182 -0.345,-1.989 0,0 M 1.076,-0.402 C 0.556,-3.4 -1.933,-5.19 -4.868,-4.682 -8.2,-4.102 -9.573,-1.19 -9.09,1.599 c 0.508,2.934 2.597,5.14 5.761,4.591 2.934,-0.51 5.012,-3.092 4.405,-6.592"
           style="fill:#ffffff;fill-opacity:1;fill-rule:nonzero;stroke:none"
           id="path62310" />
      </g>
      <g
         id="g62312"
         transform="matrix(3.454061,0,0,-3.454061,345.80808,299.52429)">
        <path
           inkscape:connector-curvature="0"
           d="m 0,0 -0.85,-0.673 -0.461,0.415 c 0.268,0.701 0.69,1.761 1.041,2.517 l 8.155,-3.987 0.32,0.648 c 0.748,1.53 0.309,3.048 -0.29,4.099 l 0.567,0.48 1.892,-2.742 C 9.403,-0.871 8.57,-2.866 7.841,-4.799 L 7.231,-4.689 7.27,-3.548 0,0 z"
           style="fill:#ffffff;fill-opacity:1;fill-rule:nonzero;stroke:none"
           id="path62314" />
      </g>
      <g
         id="g62316"
         transform="matrix(3.454061,0,0,-3.454061,388.07056,267.98488)">
        <path
           inkscape:connector-curvature="0"
           d="M 0,0 -4.137,1.5 -4.165,1.469 -2.17,-2.427 0,0 z M 5.273,1.179 5.603,0.655 C 4.921,0.075 4.267,-0.539 3.568,-1.23 l -2.431,0.842 -2.779,-3.108 1.281,-2.457 c -0.252,-0.343 -0.548,-0.825 -0.787,-1.201 l -5.115,10.204 0.798,0.929 9.683,-3.31 1.055,0.51 z"
           style="fill:#ffffff;fill-opacity:1;fill-rule:nonzero;stroke:none"
           id="path62318" />
      </g>
      <g
         id="g62320"
         transform="matrix(3.454061,0,0,-3.454061,418.49844,217.26823)">
        <path
           inkscape:connector-curvature="0"
           d="m 0,0 4.862,-8.94 -0.645,-0.293 -9.128,2.983 3.969,-6.01 -1.068,-0.793 -4.886,7.591 -1.099,-0.1 -0.153,0.602 c 0.5,0.375 1.154,0.869 1.652,1.209 l 8.4,-2.677 -2.682,4.906 -1.081,-0.087 -0.171,0.591 C -1.447,-0.704 -0.562,-0.258 0,0"
           style="fill:#ffffff;fill-opacity:1;fill-rule:nonzero;stroke:none"
           id="path62322" />
      </g>
      <g
         id="g62324"
         transform="matrix(3.454061,0,0,-3.454061,453.98201,237.78848)">
        <path
           inkscape:connector-curvature="0"
           d="M 0,0 C 2.545,0.766 3.19,3.051 2.631,4.904 2.063,6.798 0.702,8.351 -2.29,7.645 L -3.859,7.172 -1.547,-0.465 0,0 z M -1.905,8.883 C 1.791,9.974 3.844,7.957 4.532,5.676 5.287,3.171 4.318,0.19 0.938,-0.826 c 0,0 -2.272,-0.613 -3.988,-1.221 l -2.622,8.673 -1.092,0.158 -0.007,0.62 c 1.877,0.645 3.891,1.212 4.866,1.479"
           style="fill:#ffffff;fill-opacity:1;fill-rule:nonzero;stroke:none"
           id="path62326" />
      </g>
      <g
         id="g62328"
         transform="matrix(3.454061,0,0,-3.454061,526.94733,243.31981)">
        <path
           inkscape:connector-curvature="0"
           d="m 0,0 c -1.266,-0.217 -3.053,-0.075 -4.535,0.315 -2.962,0.782 -5.242,2.813 -4.33,6.268 0.97,3.68 4.008,4.529 7.28,3.668 C -0.351,9.926 0.893,9.399 2.067,8.672 L 1.045,6.213 0.49,6.362 0.363,7.801 C -0.361,8.475 -1.222,8.966 -2.106,9.199 -4.081,9.72 -6.148,8.967 -6.841,6.336 -7.487,3.888 -6.154,1.93 -4.057,1.378 -3.317,1.184 -2.513,1.146 -1.627,1.331 L -1.118,3.265 -2.585,4.289 -2.274,4.888 1.057,4.011 0,0 z"
           style="fill:#ffffff;fill-opacity:1;fill-rule:nonzero;stroke:none"
           id="path62330" />
      </g>
      <g
         id="g62332"
         transform="matrix(3.454061,0,0,-3.454061,553.57469,247.47262)">
        <path
           inkscape:connector-curvature="0"
           d="M 0,0 0.709,4.342 0.673,4.366 -2.785,1.681 0,0 z M 2.069,-5.075 1.574,-5.562 c -0.648,0.545 -1.5,1.251 -2.079,1.662 l 0.334,2.711 -3.569,2.155 -2.032,-1.653 c -0.413,0.201 -0.868,0.414 -1.309,0.608 L 1.84,6.728 2.895,6.093 1.492,-4.218 2.069,-5.075 z"
           style="fill:#ffffff;fill-opacity:1;fill-rule:nonzero;stroke:none"
           id="path62334" />
      </g>
      <g
         id="g62336"
         transform="matrix(3.454061,0,0,-3.454061,584.60766,245.22886)">
        <path
           inkscape:connector-curvature="0"
           d="m 0,0 0.565,0.258 c 1.533,-1.435 3.346,-3.554 3.346,-3.554 1.268,-1.49 0.989,-3.2 0,-4.041 -0.857,-0.73 -2.259,-0.888 -3.719,0.073 l -1.524,-5.935 -1.574,2.231 1.706,5.144 0.564,0.286 c 1.072,-0.93 2.255,-0.845 2.968,-0.238 0.631,0.538 0.894,1.645 0.079,2.601 l -0.772,0.774 -6.87,-5.898 -1.356,1.367 6.878,5.869 L 0,0 z"
           style="fill:#ffffff;fill-opacity:1;fill-rule:nonzero;stroke:none"
           id="path62338" />
      </g>
      <g
         id="g62340"
         transform="matrix(3.454061,0,0,-3.454061,610.90696,277.88187)">
        <path
           inkscape:connector-curvature="0"
           d="M 0,0 0.613,0.089 C 1.407,-1.305 2.077,-2.501 2.859,-4.307 3.641,-6.111 2.916,-7.636 1.733,-8.168 0.705,-8.63 -0.685,-8.391 -1.821,-7.06 l -3.111,-5.321 c -0.248,0.834 -0.902,2.602 -0.902,2.602 l 3.08,4.491 0.622,0.116 c 0.769,-1.193 1.929,-1.441 2.784,-1.056 0.757,0.339 1.317,1.312 0.801,2.457 L 0.994,-2.744 -7.305,-6.55 c -0.315,0.565 -0.673,1.192 -0.964,1.705 L -0.017,-1.104 0,0 z"
           style="fill:#ffffff;fill-opacity:1;fill-rule:nonzero;stroke:none"
           id="path62342" />
      </g>
      <g
         id="g62344"
         transform="matrix(3.454061,0,0,-3.454061,601.14225,338.82355)">
        <path
           inkscape:connector-curvature="0"
           d="M 0,0 C 0.203,-1.924 1.646,-3.248 4.439,-2.955 7.041,-2.679 8.253,-0.99 8.048,0.955 7.84,2.922 6.425,4.185 3.717,3.9 1.115,3.625 -0.211,2.01 0,0 M -1.143,0.093 C -1.463,3.119 0.445,5.521 3.405,5.834 6.769,6.189 8.885,3.76 9.182,0.947 9.494,-2.014 8.09,-4.707 4.895,-5.044 1.932,-5.357 -0.771,-3.437 -1.143,0.093"
           style="fill:#ffffff;fill-opacity:1;fill-rule:nonzero;stroke:none"
           id="path62346" />
      </g>
      <g
         id="g62348"
         transform="matrix(3.454061,0,0,-3.454061,620.94963,383.53153)">
        <path
           inkscape:connector-curvature="0"
           d="M 0,0 1.778,0.467 C 1.913,0.768 2.013,1.12 2.073,1.476 2.217,2.38 2.055,3.373 1.05,3.537 c -1.704,0.276 -3.06,-4.372 -5.705,-3.944 -2.142,0.345 -2.555,2.31 -2.245,4.22 0.19,1.176 0.785,2.458 1.356,3.055 L -4.362,6.182 C -5.118,5.376 -5.615,4.703 -5.825,3.403 -5.959,2.581 -5.678,1.783 -4.816,1.644 -3.203,1.383 -1.771,5.954 1.001,5.506 2.889,5.201 3.522,3.242 3.191,1.209 3.052,0.347 2.76,-0.531 2.396,-1.163 L -0.078,-0.48 0,0 z"
           style="fill:#ffffff;fill-opacity:1;fill-rule:nonzero;stroke:none"
           id="path62350" />
      </g>
      <g
         id="g62352"
         transform="matrix(3.454061,0,0,-3.454061,536.03359,354.05527)">
        <path
           inkscape:connector-curvature="0"
           d="m 0,0 -1.987,0 -1.121,4.316 c -1.561,0.671 -2.976,0.97 -4.317,0.97 -5.031,0 -7.782,-4.567 -7.664,-10.554 l -4.093,7.874 c 2.53,4.241 7.071,6.325 11.982,6.325 2.605,0 5.358,-0.596 7.887,-1.785 L 0,0 z M 1.864,22.566 -15.353,8.858 c 0.571,2.082 0.29,4.766 -1.345,6.68 l 13.019,10.354 c -0.922,0.421 -1.87,0.794 -2.843,1.116 l -12.258,-9.75 c -0.93,0.496 -2.1,0.884 -4.578,0.884 l -4.037,0 12.939,10.293 c -0.356,0.013 -0.711,0.028 -1.07,0.028 -15.803,0 -28.615,-12.811 -28.615,-28.615 0,-6.482 2.159,-12.459 5.794,-17.257 l 0,7.732 10.577,8.414 0.001,15.772 2.332,0 c 3.263,0 4.656,-2.015 4.656,-3.645 0,-2.302 -1.725,-4.072 -5.178,-4.593 l -0.367,-1.519 4.696,-8.87 -16.717,-13.291 c 1.774,-2.342 3.901,-4.397 6.3,-6.097 l 0,7.729 11.519,9.153 5.812,0 c 0.669,-3.942 3.497,-6.324 7.443,-6.324 0.966,0 2.009,0.15 3.123,0.447 l 0,4.911 -4.423,1.283 0.33,2.216 9.229,0 0,-10.793 c -3.052,-1.115 -6.177,-1.859 -9.229,-1.859 -3.868,0 -7.305,1.207 -9.854,4.314 l -13.942,-11.082 c 4.666,-3.305 10.36,-5.253 16.513,-5.253 15.8,0 28.614,12.81 28.614,28.612 0,9.26 -4.404,17.488 -11.224,22.718"
           style="fill:#d35220;fill-opacity:1;fill-rule:nonzero;stroke:none"
           id="path62354" />
      </g>
    </g>
  </g>
</svg>
