<svg xmlns="http://www.w3.org/2000/svg" height="44.155" width="250" viewBox="0 0 250 44.15501">
<g transform="matrix(1.6152 0 0 1.6152 .88028 1.1197)">
  <path fill="#ffd400" d="m38.699 0c-9.4 0-21.6 3.5-31 7 12.9-2.5 28.902-3.1008 41.102-2.3008-1.9-2.3-4.802-4.6992-10.102-4.6992zm1.3262 6.0078c-14.136 0.2035-27.675 3.093-40.025 8.2932 18.6 1.1 32.5 2.6996 48.4 6.0996 1.9-2.2 3.0996-4.9996 3.0996-8.0996-0.1-2.2-0.59961-4.3-1.5996-6-3.3188-0.24375-6.6127-0.33992-9.875-0.29297zm-16.904 13.879c-3.0469 0.03281-6.0453 0.1375-8.8203 0.3125 18.3 2.6 19.5 4.4004 24 4.4004 3.5 0 6.4992-1.1004 8.6992-2.9004-5.175-1.35-14.738-1.9109-23.879-1.8125z"/>
  <path fill="#00288c" d="m133.6 4.9004c-5.4 0-9.1992 4.6992-9.6992 9.1992-0.4 3.8 1.4992 6.2012 5.6992 6.2012 1.6 0 3.2996-0.20039 5.0996-0.90039l1.1016-3.5c-1.2 0.5-3.1012 1.0996-4.7012 1.0996-1.3 0-2.1992-0.39922-2.6992-1.1992-0.3-0.4-0.30078-1.1-0.30078-1.5 5.8 0.1 9.6996-1.2 10.1-5 0.3-2.7-1.5996-4.4004-4.5996-4.4004zm-48.401 0.0996c-4.2 0-7.3988 2-7.7988 5-0.3 1.8 1.1004 3.1004 2.9004 3.9004 1.4 0.7 1.8988 1.2004 1.7988 1.9004-0.099 0.7-0.799 1.199-2.199 1.199-1.6 0-3.4-0.6-4.4-1.1l-1 3.5c1.1 0.5 2.4996 0.90039 4.5996 0.90039 4.3 0 7.6996-1.8012 8.0996-5.2012 0.3-2-1.3996-3.2-3.0996-4-1.3-0.6-1.8988-1.0992-1.7988-1.6992 0.1-0.8 0.99883-1.3008 2.2988-1.3008 1.4 0 2.7004 0.50078 3.4004 0.80078l1.001-3.3004c-0.8-0.3-1.901-0.5996-3.801-0.5996zm16.9 0c-4.2 0-8.5004 3.3996-9.9004 7.5996-1.3 4.2 0.8 7.7012 5 7.7012 4.7 0 8.8016-3.5012 10.102-7.7012 1.4-4.2004-0.9-7.6-5.2-7.6zm17.301 0c-1.7 0-3.6 0.99961-5 2.5996h-0.0996l0.59961-2.2988h-3.9004c-0.4 1.5-1.1 3.9992-1.6 5.6992l-4.5996 15v0.09961h4.2988l1.9004-6.2988h0.0996c0.5 0.3 1.5012 0.59961 2.7012 0.59961 5.1 0 9.0992-4.7008 9.6992-9.8008 0.3-3.0004-0.9-5.6-4.1-5.6zm30.799 0c-2 0-3.9 0.69961-5.5 2.5996h-0.0996l0.59961-2.2988h-3.8984c-0.3 1.3-0.7 2.8988-1.3 4.7992l-3 9.9v0.09961h4.3008s1.0996-3.4988 2.0996-6.7988c1.1-3.4 2.6992-5 4.1992-5 1.6 1e-7 1.5004 1.4 0.90039 3.5-0.5 1.8-2.5 8.199-2.5 8.199h4.4004l2.6-8.5c0.2-0.7 0.4-1.8 0.5-2.5 0.3-2.5-0.90078-4-3.3008-4zm-77.8 0.1992s-0.99961 3.4008-2.0996 6.8008-2.7012 5-4.2012 5c-1.6 0-1.5004-1.4-0.90039-3.5 0.5-1.8 2.5-8.1992 2.5-8.1992h-4.2988l-2.5996 8.5c-0.2 0.7-0.4 1.8-0.5 2.5-0.3 2.5 0.89883 4 3.2988 4 2 0 3.9-0.70156 5.5-2.6016h0.09961l-0.6 2.301h3.9c0.3-1.3 0.70078-2.9008 1.3008-4.8008l3-9.8984v-0.10156h-4.4004zm60.299 2.9004c1 0 1.5 0.50117 1.5 1.2012-0.2 1.3-1.8988 1.7988-5.2988 1.7988 0.4-1.3 1.7988-3 3.7988-3zm-31.6 0.099609c1.7 0 2.1 1.5008 2 2.8008-0.3 2.5-2.0004 6-4.4004 6-1.5 0-2.2-1.1004-2-2.9004 0.2-2.3 1.9004-5.9004 4.4004-5.9004zm16.4 0c1.4-1e-7 1.6996 1.2004 1.5996 2.4004-0.4 2.9-2.8 6.4-5.1 6.4-0.8 0-1.5004-0.19922-1.9004-0.69922l1-3.2012c0.8-2.8 2.8004-4.9004 4.4004-4.9004z"/>
 </g>
</svg>
