<?xml version="1.0" encoding="UTF-8" standalone="no"?>
<!-- Created with Inkscape (http://www.inkscape.org/) -->

<svg
   xmlns:dc="http://purl.org/dc/elements/1.1/"
   xmlns:cc="http://creativecommons.org/ns#"
   xmlns:rdf="http://www.w3.org/1999/02/22-rdf-syntax-ns#"
   xmlns:svg="http://www.w3.org/2000/svg"
   xmlns="http://www.w3.org/2000/svg"
   xmlns:sodipodi="http://sodipodi.sourceforge.net/DTD/sodipodi-0.dtd"
   xmlns:inkscape="http://www.inkscape.org/namespaces/inkscape"
   width="337.86398"
   height="337.88406"
   id="svg38513"
   version="1.1"
   inkscape:version="0.48.2 r9819"
   sodipodi:docname="Logo Wimbledon.svg">
  <defs
     id="defs38515" />
  <sodipodi:namedview
     id="base"
     pagecolor="#ffffff"
     bordercolor="#666666"
     borderopacity="1.0"
     inkscape:pageopacity="0.0"
     inkscape:pageshadow="2"
     inkscape:zoom="0.49497475"
     inkscape:cx="144.0838"
     inkscape:cy="296.18748"
     inkscape:document-units="px"
     inkscape:current-layer="layer1"
     showgrid="false"
     fit-margin-top="5"
     fit-margin-right="5"
     fit-margin-bottom="5"
     fit-margin-left="5"
     inkscape:window-width="1366"
     inkscape:window-height="706"
     inkscape:window-x="-8"
     inkscape:window-y="-8"
     inkscape:window-maximized="1" />
  <metadata
     id="metadata38518">
    <rdf:RDF>
      <cc:Work
         rdf:about="">
        <dc:format>image/svg+xml</dc:format>
        <dc:type
           rdf:resource="http://purl.org/dc/dcmitype/StillImage" />
        <dc:title></dc:title>
      </cc:Work>
    </rdf:RDF>
  </metadata>
  <g
     inkscape:label="Calque 1"
     inkscape:groupmode="layer"
     id="layer1"
     transform="translate(230.66514,114.64294)">
    <g
       transform="matrix(10.031944,0,0,-10.031944,-652.24146,1868.6193)"
       id="g59710">
      <path
         inkscape:connector-curvature="0"
         d="m 58.8638,164.7207 c -8.911,0 -16.134,7.223 -16.134,16.134 0,8.909 7.223,16.134 16.134,16.134 8.908,0 16.133,-7.225 16.133,-16.134 0,-8.911 -7.225,-16.134 -16.133,-16.134"
         style="fill:#472380;fill-opacity:1;fill-rule:nonzero;stroke:none"
         id="path48390" />
      <path
         inkscape:connector-curvature="0"
         d="m 58.8638,196.7813 c -8.782,0 -15.926,-7.146 -15.926,-15.927 0,-8.783 7.144,-15.927 15.926,-15.927 8.781,0 15.925,7.144 15.925,15.927 0,8.781 -7.144,15.927 -15.925,15.927 m 0,-32.269 c -9.012,0 -16.342,7.331 -16.342,16.342 0,9.011 7.33,16.342 16.342,16.342 9.01,0 16.34,-7.331 16.34,-16.342 0,-9.011 -7.33,-16.342 -16.34,-16.342"
         style="fill:#ffffff;fill-opacity:1;fill-rule:nonzero;stroke:none"
         id="path48394" />
      <path
         inkscape:connector-curvature="0"
         d="m 58.8628,170.3848 c -5.773,0 -10.471,4.695 -10.471,10.47 0,5.774 4.698,10.47 10.471,10.47 5.773,0 10.472,-4.696 10.472,-10.47 0,-5.775 -4.699,-10.47 -10.472,-10.47"
         style="fill:#006838;fill-opacity:1;fill-rule:nonzero;stroke:none"
         id="path48398" />
      <path
         inkscape:connector-curvature="0"
         d="m 58.8628,191.5322 c -5.897,0 -10.678,-4.78 -10.678,-10.678 0,-5.897 4.781,-10.677 10.678,-10.677 5.896,0 10.68,4.78 10.68,10.677 0,5.898 -4.784,10.678 -10.68,10.678 m 0,-0.414 c 5.66,0 10.263,-4.606 10.263,-10.264 0,-5.658 -4.603,-10.263 -10.263,-10.263 -5.659,0 -10.261,4.605 -10.261,10.263 0,5.658 4.602,10.264 10.261,10.264"
         style="fill:#ffffff;fill-opacity:1;fill-rule:nonzero;stroke:none"
         id="path48402" />
      <path
         inkscape:connector-curvature="0"
         d="m 49.5449,172.9775 0.357,-0.411 -0.693,-1.376 1.329,0.743 0.306,-0.279 -0.583,-1.395 1.267,0.833 0.431,-0.304 -2.023,-1.206 -0.329,0.271 0.563,1.368 -1.299,-0.702 -0.305,0.296 0.979,2.162 z"
         style="fill:#ffffff;fill-opacity:1;fill-rule:nonzero;stroke:none"
         id="path48406" />
      <path
         inkscape:connector-curvature="0"
         d="m 52.3804,170.5176 0.411,-0.245 -1.115,-1.874 -0.412,0.246 1.116,1.873 z"
         style="fill:#ffffff;fill-opacity:1;fill-rule:nonzero;stroke:none"
         id="path48410" />
      <path
         inkscape:connector-curvature="0"
         d="m 53.3823,169.9473 0.471,-0.224 0.201,-1.064 0.815,0.662 0.487,-0.162 -0.744,-2.044 -0.448,0.144 0.486,1.337 -0.906,-0.637 -0.011,0.005 -0.224,1.073 -0.553,-1.293 -0.43,0.197 0.856,2.006 z"
         style="fill:#ffffff;fill-opacity:1;fill-rule:nonzero;stroke:none"
         id="path48414" />
      <path
         inkscape:connector-curvature="0"
         d="m 56.7002,167.9434 c 0.203,-0.035 0.352,0.019 0.375,0.178 l 0,0.005 c 0.021,0.143 -0.068,0.237 -0.276,0.272 -0.21,0.037 -0.376,0.07 -0.437,0.084 -0.014,-0.061 -0.077,-0.406 -0.09,-0.453 0.133,-0.036 0.226,-0.053 0.428,-0.086 m 0,-0.889 c 0.209,-0.028 0.347,0.028 0.369,0.187 l 0.002,0.006 c 0.021,0.144 -0.083,0.251 -0.314,0.286 -0.178,0.029 -0.392,0.065 -0.559,0.102 -0.015,-0.071 -0.08,-0.412 -0.092,-0.464 0.139,-0.034 0.322,-0.069 0.594,-0.117 m -0.71,1.93 c 0.385,-0.084 0.72,-0.143 0.938,-0.183 0.247,-0.036 0.433,-0.132 0.537,-0.274 0.085,-0.113 0.115,-0.24 0.095,-0.39 l -0.001,-0.006 c -0.036,-0.243 -0.174,-0.382 -0.352,-0.423 0.235,-0.13 0.368,-0.3 0.326,-0.588 l 0,-0.006 c -0.059,-0.395 -0.406,-0.55 -0.893,-0.476 -0.349,0.06 -0.698,0.129 -1.071,0.213 l 0.421,2.133 z"
         style="fill:#ffffff;fill-opacity:1;fill-rule:nonzero;stroke:none"
         id="path48418" />
      <path
         inkscape:connector-curvature="0"
         d="m 58.3032,168.6572 0.481,-0.008 c 0,0 -0.025,-1.67 -0.027,-1.744 0.259,-0.001 0.719,0.013 1.062,0.036 0.007,-0.135 0.031,-0.435 0.031,-0.435 -0.517,-0.037 -1.121,-0.043 -1.58,-0.03 l 0.033,2.181 z"
         style="fill:#ffffff;fill-opacity:1;fill-rule:nonzero;stroke:none"
         id="path48422" />
      <path
         inkscape:connector-curvature="0"
         d="m 60.2158,168.7236 c 0.52,0.063 0.991,0.145 1.554,0.273 0,0 0.075,-0.351 0.09,-0.416 -0.243,-0.062 -0.794,-0.176 -1.108,-0.219 l 0.066,-0.438 c 0.305,0.045 0.645,0.11 0.997,0.195 l 0.09,-0.416 c -0.272,-0.071 -0.696,-0.145 -1.022,-0.201 l 0.068,-0.453 c 0.405,0.065 0.773,0.14 1.203,0.242 l 0.09,-0.418 c -0.564,-0.133 -1.111,-0.224 -1.699,-0.304 l -0.329,2.155 z"
         style="fill:#ffffff;fill-opacity:1;fill-rule:nonzero;stroke:none"
         id="path48426" />
      <path
         inkscape:connector-curvature="0"
         d="m 63.8511,167.8242 c 0.348,0.146 0.518,0.485 0.377,0.845 l -0.002,0.006 c -0.14,0.36 -0.486,0.517 -0.851,0.376 0,0 -0.218,-0.087 -0.323,-0.12 0.027,-0.073 0.443,-1.245 0.443,-1.245 0,0 0.186,0.067 0.356,0.138 m -1.403,1.354 0.77,0.276 c 0.639,0.248 1.252,-0.021 1.472,-0.593 l 0.002,-0.005 c 0.223,-0.571 -0.046,-1.187 -0.684,-1.435 -0.363,-0.141 -0.597,-0.219 -0.832,-0.289 l -0.728,2.046 z"
         style="fill:#ffffff;fill-opacity:1;fill-rule:nonzero;stroke:none"
         id="path48430" />
      <path
         inkscape:connector-curvature="0"
         d="m 66.6836,170.0752 -0.004,0.004 c -0.202,0.316 -0.602,0.429 -0.926,0.218 -0.324,-0.209 -0.382,-0.611 -0.18,-0.925 l 0.003,-0.006 c 0.202,-0.312 0.602,-0.425 0.928,-0.217 0.324,0.21 0.384,0.613 0.179,0.926 m -1.524,-0.986 -0.004,0.005 c -0.337,0.52 -0.202,1.212 0.362,1.579 0.567,0.365 1.244,0.206 1.581,-0.314 l 0.002,-0.006 c 0.337,-0.519 0.204,-1.212 -0.362,-1.577 -0.566,-0.366 -1.243,-0.206 -1.579,0.313"
         style="fill:#ffffff;fill-opacity:1;fill-rule:nonzero;stroke:none"
         id="path48434" />
      <path
         inkscape:connector-curvature="0"
         d="m 66.8052,171.5889 0.331,0.296 1.656,-0.239 -0.968,0.922 0.309,0.352 1.584,-1.497 -0.27,-0.307 -1.742,0.214 0.955,-1.002 -0.351,-0.317 -1.504,1.578 z"
         style="fill:#ffffff;fill-opacity:1;fill-rule:nonzero;stroke:none"
         id="path48438" />
      <path
         inkscape:connector-curvature="0"
         d="m 45.0488,182.6885 c -0.029,-0.184 -0.055,-0.416 -0.074,-0.648 l -0.436,0.045 c 0.051,0.611 0.141,1.227 0.262,1.801 l 0.436,-0.078 c -0.041,-0.2 -0.103,-0.502 -0.118,-0.645 0.078,-0.012 1.717,-0.249 1.717,-0.249 l -0.069,-0.474 c 0,0 -1.574,0.227 -1.718,0.248"
         style="fill:#ffffff;fill-opacity:1;fill-rule:nonzero;stroke:none"
         id="path48442" />
      <path
         inkscape:connector-curvature="0"
         d="m 46.082,187.4531 c 0.194,0.372 0.568,1.001 0.855,1.45 l 0.368,-0.22 c -0.228,-0.339 -0.466,-0.723 -0.62,-1.02 l 0.386,-0.214 c 0.142,0.252 0.327,0.554 0.54,0.892 l 0.367,-0.219 c -0.188,-0.289 -0.391,-0.611 -0.533,-0.882 l 0.401,-0.222 c 0.115,0.226 0.411,0.701 0.609,0.992 l 0.364,-0.22 c -0.258,-0.364 -0.623,-0.982 -0.833,-1.395 l -1.904,1.058 z"
         style="fill:#ffffff;fill-opacity:1;fill-rule:nonzero;stroke:none"
         id="path48446" />
      <path
         inkscape:connector-curvature="0"
         d="m 48.8154,189.585 -0.005,0.005 c -0.441,0.434 -0.472,1.125 -0.002,1.599 0.292,0.293 0.561,0.371 0.844,0.375 l 0.037,-0.463 c -0.228,-0.014 -0.413,-0.069 -0.569,-0.224 -0.258,-0.262 -0.225,-0.664 0.039,-0.927 l 0.005,-0.005 c 0.264,-0.262 0.667,-0.297 0.931,-0.032 0.174,0.177 0.212,0.356 0.222,0.586 l 0.432,0 c 0.013,-0.329 -0.056,-0.609 -0.351,-0.908 -0.452,-0.456 -1.139,-0.445 -1.583,-0.006"
         style="fill:#ffffff;fill-opacity:1;fill-rule:nonzero;stroke:none"
         id="path48450" />
      <path
         inkscape:connector-curvature="0"
         d="m 54.2656,193.124 -0.534,0.546 -0.004,-0.764 0.538,0.218 z m -0.95,1 0.41,0.165 1.715,-1.716 -0.489,-0.156 -0.368,0.378 -0.851,-0.362 -0.003,-0.502 -0.45,-0.22 0.036,2.413 z"
         style="fill:#ffffff;fill-opacity:1;fill-rule:nonzero;stroke:none"
         id="path48454" />
      <path
         inkscape:connector-curvature="0"
         d="m 55.4609,194.8281 0.507,0.116 0.776,-0.816 0.484,1.017 0.516,0.043 0.27,-2.162 -0.477,-0.039 -0.175,1.413 -0.496,-1.027 -0.013,-0.004 -0.783,0.814 0.272,-1.38 -0.46,-0.114 -0.421,2.139 z"
         style="fill:#ffffff;fill-opacity:1;fill-rule:nonzero;stroke:none"
         id="path48458" />
      <path
         inkscape:connector-curvature="0"
         d="m 59.5386,194.126 c 0.24,-0.006 0.386,0.12 0.394,0.307 l 0,0.005 c 0.01,0.214 -0.124,0.349 -0.365,0.359 l -0.382,0.01 -0.026,-0.671 0.379,-0.01 z m -0.828,1.106 0.47,-0.002 0.439,-0.014 c 0.564,-0.027 0.818,-0.362 0.8,-0.791 l 0,-0.006 c -0.024,-0.504 -0.426,-0.731 -0.916,-0.722 l -0.356,0.012 -0.021,-0.653 -0.481,0 0.065,2.176 z"
         style="fill:#ffffff;fill-opacity:1;fill-rule:nonzero;stroke:none"
         id="path48462" />
      <path
         inkscape:connector-curvature="0"
         d="m 71.4258,185.1992 c 0.085,-0.223 0.257,-0.311 0.433,-0.25 l 0.005,0.004 c 0.204,0.071 0.276,0.246 0.196,0.473 l -0.133,0.356 -0.633,-0.225 0.132,-0.358 z m 0.717,1.183 0.173,-0.437 0.152,-0.411 c 0.187,-0.533 -0.03,-0.895 -0.433,-1.037 l -0.006,-0.002 c -0.477,-0.167 -0.838,0.122 -1.013,0.578 l -0.122,0.335 -0.614,-0.226 -0.18,0.446 2.043,0.754 z"
         style="fill:#ffffff;fill-opacity:1;fill-rule:nonzero;stroke:none"
         id="path48466" />
      <path
         inkscape:connector-curvature="0"
         d="m 61.2617,195.0361 0.471,-0.088 -0.401,-2.141 -0.472,0.087 0.402,2.142 z"
         style="fill:#ffffff;fill-opacity:1;fill-rule:nonzero;stroke:none"
         id="path48470" />
      <path
         inkscape:connector-curvature="0"
         d="m 63.8887,193.1758 0.002,0.006 c 0.125,0.352 -0.03,0.737 -0.393,0.866 -0.363,0.13 -0.718,-0.068 -0.842,-0.42 l -0.004,-0.006 c -0.125,-0.353 0.031,-0.737 0.395,-0.866 0.363,-0.13 0.717,0.067 0.842,0.42 m -1.711,0.607 0.002,0.006 c 0.209,0.586 0.838,0.899 1.473,0.674 0.634,-0.225 0.919,-0.858 0.713,-1.444 l -0.003,-0.006 c -0.207,-0.582 -0.838,-0.897 -1.472,-0.673 -0.634,0.226 -0.921,0.859 -0.713,1.443"
         style="fill:#ffffff;fill-opacity:1;fill-rule:nonzero;stroke:none"
         id="path48474" />
      <path
         inkscape:connector-curvature="0"
         d="m 65.4814,193.626 0.388,-0.211 0.193,-1.688 0.728,1.127 0.393,-0.267 -1.186,-1.829 -0.337,0.231 -0.162,1.723 -0.689,-1.201 -0.415,0.227 1.087,1.888 z"
         style="fill:#ffffff;fill-opacity:1;fill-rule:nonzero;stroke:none"
         id="path48478" />
      <path
         inkscape:connector-curvature="0"
         d="m 66.7158,190.6006 0.436,0.071 c 0.042,-0.252 0.131,-0.463 0.321,-0.626 0.147,-0.128 0.287,-0.145 0.371,-0.05 l 0.005,0.005 c 0.08,0.092 0.064,0.187 -0.153,0.497 -0.259,0.373 -0.394,0.65 -0.11,0.978 l 0.004,0.004 c 0.258,0.3 0.668,0.292 1.005,0 0.242,-0.208 0.382,-0.46 0.434,-0.739 l -0.424,-0.111 c -0.06,0.228 -0.151,0.412 -0.291,0.533 -0.138,0.121 -0.265,0.119 -0.334,0.039 l -0.005,-0.004 c -0.095,-0.11 -0.054,-0.206 0.169,-0.526 0.259,-0.375 0.345,-0.659 0.096,-0.946 l -0.003,-0.006 c -0.283,-0.327 -0.691,-0.296 -1.048,0.011 -0.251,0.216 -0.429,0.521 -0.473,0.87"
         style="fill:#ffffff;fill-opacity:1;fill-rule:nonzero;stroke:none"
         id="path48482" />
      <path
         inkscape:connector-curvature="0"
         d="m 69.8789,190.1025 0.304,-0.369 -0.683,-0.528 0.533,-0.723 0.707,0.491 0.264,-0.402 -1.789,-1.242 -0.264,0.402 0.718,0.499 -0.517,0.703 -0.692,-0.535 -0.303,0.369 1.722,1.335 z"
         style="fill:#ffffff;fill-opacity:1;fill-rule:nonzero;stroke:none"
         id="path48486" />
      <path
         inkscape:connector-curvature="0"
         d="m 50.1616,192.3105 0.383,0.284 0.495,-0.706 0.789,0.52 -0.455,0.731 0.417,0.245 1.149,-1.852 -0.417,-0.243 -0.46,0.744 -0.77,-0.507 0.502,-0.716 -0.382,-0.285 -1.251,1.785 z"
         style="fill:#ffffff;fill-opacity:1;fill-rule:nonzero;stroke:none"
         id="path48490" />
      <path
         inkscape:connector-curvature="0"
         d="m 45.0024,184.7012 0.133,0.458 0.821,-0.261 0.294,0.844 -0.806,0.305 0.184,0.447 2.036,-0.772 -0.182,-0.445 -0.818,0.31 -0.287,-0.823 0.833,-0.267 -0.132,-0.459 -2.076,0.663 z"
         style="fill:#ffffff;fill-opacity:1;fill-rule:nonzero;stroke:none"
         id="path48494" />
      <path
         inkscape:connector-curvature="0"
         d="m 71.5171,187.7031 0.217,-0.427 -1.943,-0.988 -0.215,0.427 1.941,0.988 z"
         style="fill:#ffffff;fill-opacity:1;fill-rule:nonzero;stroke:none"
         id="path48498" />
      <path
         inkscape:connector-curvature="0"
         d="m 71.0947,183.707 0.377,-0.233 c -0.133,-0.216 -0.204,-0.435 -0.167,-0.681 0.027,-0.194 0.123,-0.3 0.248,-0.282 l 0.007,0.001 c 0.12,0.017 0.17,0.1 0.21,0.474 0.048,0.451 0.127,0.748 0.555,0.812 l 0.007,0 c 0.391,0.057 0.695,-0.218 0.761,-0.659 0.045,-0.315 -0.016,-0.597 -0.157,-0.842 l -0.395,0.194 c 0.105,0.211 0.158,0.411 0.131,0.592 -0.028,0.183 -0.123,0.266 -0.227,0.25 l -0.007,-0.001 c -0.142,-0.021 -0.176,-0.119 -0.217,-0.507 -0.05,-0.454 -0.17,-0.722 -0.547,-0.777 l -0.006,-0.002 c -0.429,-0.063 -0.717,0.229 -0.784,0.694 -0.048,0.327 0.018,0.674 0.211,0.967"
         style="fill:#ffffff;fill-opacity:1;fill-rule:nonzero;stroke:none"
         id="path48502" />
      <path
         inkscape:connector-curvature="0"
         d="m 59.6865,174.5381 c -0.209,-0.213 -0.497,-0.346 -0.818,-0.346 -0.321,0 -0.608,0.133 -0.816,0.346 -0.119,-0.165 -0.189,-0.364 -0.189,-0.582 0,-0.219 0.07,-0.417 0.189,-0.582 0.206,0.212 0.495,0.346 0.816,0.346 0.321,0 0.611,-0.134 0.818,-0.347 0.118,0.166 0.188,0.364 0.188,0.583 0,0.218 -0.07,0.417 -0.188,0.582"
         style="fill:#ffffff;fill-opacity:1;fill-rule:nonzero;stroke:none"
         id="path48506" />
      <path
         inkscape:connector-curvature="0"
         d="m 58.8687,174.4697 c 0.245,0.001 0.467,0.104 0.625,0.27 -0.172,0.136 -0.387,0.221 -0.625,0.221 -0.236,0 -0.453,-0.085 -0.624,-0.221 0.158,-0.166 0.38,-0.269 0.624,-0.27"
         style="fill:#ffffff;fill-opacity:1;fill-rule:nonzero;stroke:none"
         id="path48510" />
      <path
         inkscape:connector-curvature="0"
         d="m 58.8687,173.4424 c -0.246,-0.001 -0.467,-0.104 -0.624,-0.269 0.171,-0.138 0.388,-0.224 0.624,-0.224 0.238,0 0.453,0.086 0.625,0.224 -0.157,0.165 -0.378,0.268 -0.625,0.269"
         style="fill:#ffffff;fill-opacity:1;fill-rule:nonzero;stroke:none"
         id="path48514" />
      <path
         inkscape:connector-curvature="0"
         d="m 54.2393,175.9814 1.486,0 c 0.19,0.19 0.381,0.384 0.568,0.574 l -1.493,0 c -0.193,-0.194 -0.382,-0.386 -0.561,-0.574"
         style="fill:#ffffff;fill-opacity:1;fill-rule:nonzero;stroke:none"
         id="path48518" />
      <path
         inkscape:connector-curvature="0"
         d="m 55.0972,176.8555 1.485,0 c 0.193,0.198 0.377,0.392 0.551,0.574 l -1.449,0 c -0.194,-0.187 -0.392,-0.381 -0.587,-0.574"
         style="fill:#ffffff;fill-opacity:1;fill-rule:nonzero;stroke:none"
         id="path48522" />
      <path
         inkscape:connector-curvature="0"
         d="m 53.9019,175.624 c -0.152,-0.163 -0.238,-0.28 0.098,-0.617 0.337,-0.338 0.453,-0.249 0.616,-0.099 0.059,0.055 0.119,0.11 0.178,0.165 0.205,0.193 0.417,0.398 0.63,0.611 l -1.466,0 c -0.019,-0.021 -0.038,-0.041 -0.056,-0.06"
         style="fill:#ffffff;fill-opacity:1;fill-rule:nonzero;stroke:none"
         id="path48526" />
      <path
         inkscape:connector-curvature="0"
         d="m 57.4541,177.7676 0.024,0.027 c 0.051,0.054 0.055,0.061 0.102,0.114 0.054,0.057 0.083,0.093 0.083,0.133 l -0.627,0.627 c -0.041,0 -0.077,-0.028 -0.134,-0.08 -0.056,-0.052 -0.068,-0.059 -0.123,-0.112 l -0.028,-0.025 c -0.23,-0.218 -0.488,-0.463 -0.759,-0.723 l 1.424,0.001 c 0.013,0.012 0.026,0.026 0.038,0.038"
         style="fill:#ffffff;fill-opacity:1;fill-rule:nonzero;stroke:none"
         id="path48530" />
      <path
         inkscape:connector-curvature="0"
         d="m 62.751,175.2451 0,1.486 c -0.193,0.192 -0.384,0.381 -0.576,0.568 l 0,-1.493 c 0.194,-0.192 0.387,-0.38 0.576,-0.561"
         style="fill:#ffffff;fill-opacity:1;fill-rule:nonzero;stroke:none"
         id="path48534" />
      <path
         inkscape:connector-curvature="0"
         d="m 61.8755,176.1045 0,1.483 c -0.199,0.193 -0.391,0.378 -0.574,0.552 l 0,-1.449 c 0.188,-0.194 0.38,-0.391 0.574,-0.586"
         style="fill:#ffffff;fill-opacity:1;fill-rule:nonzero;stroke:none"
         id="path48538" />
      <path
         inkscape:connector-curvature="0"
         d="m 59.0698,179.0928 0.803,-0.823 0.586,0.588 -0.786,0.77 c -0.169,-0.123 -0.34,-0.271 -0.528,-0.459 l -0.075,-0.076 z"
         style="fill:#ffffff;fill-opacity:1;fill-rule:nonzero;stroke:none"
         id="path48542" />
      <path
         inkscape:connector-curvature="0"
         d="m 63.1089,174.9082 c 0.161,-0.15 0.279,-0.239 0.617,0.099 0.336,0.337 0.247,0.454 0.098,0.617 -0.055,0.058 -0.11,0.117 -0.167,0.176 -0.191,0.206 -0.398,0.418 -0.608,0.631 l 0,-1.467 c 0.019,-0.019 0.04,-0.037 0.06,-0.056"
         style="fill:#ffffff;fill-opacity:1;fill-rule:nonzero;stroke:none"
         id="path48546" />
      <path
         inkscape:connector-curvature="0"
         d="m 60.9629,178.4609 -0.026,0.025 c -0.054,0.05 -0.061,0.052 -0.112,0.103 -0.059,0.052 -0.096,0.08 -0.136,0.08 l -0.627,-0.627 c -0.001,-0.04 0.027,-0.076 0.082,-0.136 0.05,-0.054 0.057,-0.064 0.11,-0.121 l 0.025,-0.027 c 0.22,-0.232 0.465,-0.489 0.725,-0.758 l 0,1.424 c -0.014,0.013 -0.028,0.025 -0.041,0.037"
         style="fill:#ffffff;fill-opacity:1;fill-rule:nonzero;stroke:none"
         id="path48550" />
      <path
         id="path48552"
         style="fill:#ffffff;fill-opacity:1;fill-rule:nonzero;stroke:none"
         d="m 57.089,182.382 -0.623,0 0,0.623 0.623,0 0,-0.623 z m -0.756,-0.755 -0.623,-0.002 0,0.623 0.623,0 0,-0.621 z m -1.38,0.621 0.625,0 0,-0.623 -0.625,0 0,0.623 z m -0.755,0 0.625,0 0,-0.623 -0.625,0 0,0.623 z m -0.755,0.757 0.623,0 0,-0.623 -0.623,0 0,0.623 z m -0.776,0.757 0.642,0 0,-0.624 -0.642,0 0,0.624 z m 0,0.756 0.642,0 0,-0.624 -0.642,0 0,0.624 z m 0,0.786 0.642,0 0,-0.652 -0.642,0 0,0.652 z m 0.776,0.797 0.623,0 0,-0.665 -0.623,0 0,0.665 z m 1.38,-0.665 -0.625,0 0,0.665 0.625,0 0,-0.665 z m 0.755,0 -0.625,0 0,0.665 0.625,0 0,-0.665 z m 0.755,-0.785 -0.624,0 0,0.652 0.624,0 0,-0.652 z m 0.756,-0.757 -0.623,0 0,0.624 0.623,0 0,-0.624 z m -1.379,-0.132 0.624,0 0,-0.624 -0.624,0 0,0.624 z m -0.757,-0.757 0.625,0 0,-0.623 -0.625,0 0,0.623 z m -0.755,0 0.625,0 0,-0.623 -0.625,0 0,0.623 z m 0.625,1.646 -0.625,0 0,0.652 0.625,0 0,-0.652 z m 0.755,0 -0.625,0 0,0.652 0.625,0 0,-0.652 z m -0.625,-0.133 0.625,0 0,-0.624 -0.625,0 0,0.624 z m -0.755,0 0.625,0 0,-0.624 -0.625,0 0,0.624 z m 0,-0.756 0.625,0 0,-0.624 -0.625,0 0,0.624 z m 1.38,-0.624 -0.625,0 0,0.624 0.625,0 0,-0.624 z m 0.755,0.756 -0.624,0 0,0.624 0.624,0 0,-0.624 z m -2.89,1.41 0.623,0 0,-0.652 -0.623,0 0,0.652 z m 0,-0.786 0.623,0 0,-0.624 -0.623,0 0,0.624 z m 0,-0.756 0.623,0 0,-0.624 -0.623,0 0,0.624 z m 2.89,-1.38 -0.624,0 0,0.623 0.624,0 0,-0.623 z m 0.756,0.756 -0.623,0 0,0.624 0.623,0 0,-0.624 z m 0.628,-0.133 c 0.005,0.045 0.005,0.088 0.006,0.133 l -0.5,0 0,0.624 0.455,0 c -0.007,0.043 -0.016,0.088 -0.027,0.132 l -0.428,0 0,0.624 0.217,0 c -0.019,0.044 -0.038,0.087 -0.061,0.133 l -0.156,0 0,0.281 c -0.042,0.067 -0.085,0.133 -0.134,0.2 l 0,-0.481 -0.622,0 0,0.653 0.492,0 c -0.036,0.044 -0.072,0.089 -0.11,0.132 l -0.382,0 0,0.38 c -0.044,0.039 -0.09,0.075 -0.134,0.109 l 0,-0.489 -0.623,0 0,0.665 0.383,0 c -0.069,0.045 -0.139,0.09 -0.21,0.131 l -0.173,0 0,0.094 c -0.043,0.024 -0.087,0.043 -0.132,0.063 l 0,-0.157 -0.625,0 0,0.371 c -0.042,0.009 -0.086,0.021 -0.13,0.03 l 0,-0.401 -0.625,0 0,0.449 c -0.044,-0.002 -0.088,-0.002 -0.133,-0.006 l 0,-0.443 -0.622,0 0,0.304 c -0.046,-0.015 -0.09,-0.029 -0.133,-0.049 l 0,-0.255 -0.431,0 c -0.053,-0.041 -0.105,-0.086 -0.154,-0.131 l 0.585,0 0,-0.665 -0.643,0 0,0.613 c -0.046,-0.048 -0.09,-0.1 -0.133,-0.151 l 0,-0.462 -0.288,0 c -0.019,-0.043 -0.036,-0.088 -0.052,-0.132 l 0.34,0 0,-0.653 -0.486,0 c -0.003,-0.045 -0.003,-0.089 -0.005,-0.133 l 0.491,0 0,-0.624 -0.443,0 c 0.01,-0.044 0.021,-0.088 0.031,-0.132 l 0.412,0 0,-0.624 -0.197,0 c 0.021,-0.045 0.042,-0.088 0.063,-0.133 l 0.134,0 0,-0.242 c 0.043,-0.067 0.087,-0.135 0.133,-0.201 l 0,0.443 0.643,0 0,-0.623 -0.505,0 c 0.035,-0.045 0.07,-0.089 0.108,-0.134 l 0.397,0 0,-0.394 c 0.043,-0.038 0.087,-0.072 0.133,-0.106 l 0,0.5 0.622,0 0,-0.623 -0.463,0 c 0.066,-0.046 0.134,-0.091 0.202,-0.132 l 0.261,0 0,-0.145 c 0.045,-0.022 0.089,-0.041 0.133,-0.062 l 0,0.207 0.625,0 0,-0.419 c 0.044,-0.011 0.088,-0.02 0.13,-0.03 l 0,0.449 0.625,0 0,-0.494 c 0.045,0.002 0.089,0.002 0.132,0.005 l 0,0.489 0.623,0 0,-0.347 c 0.044,0.017 0.09,0.032 0.134,0.05 l 0,0.297 0.477,0 c 0.049,0.041 0.1,0.082 0.145,0.129 l 0,0.005 -0.622,0 0,0.621 0.622,0 0,-0.621 0.005,0 c 0,0 10e-4,0 0.002,10e-4 0.045,0.045 0.086,0.095 0.127,0.143 l 0,0.477 0.3,0 c 0.021,0.043 0.034,0.089 0.051,0.134 l -0.351,0 0,0.623 0.494,0 z"
         inkscape:connector-curvature="0" />
      <path
         inkscape:connector-curvature="0"
         d="m 57.8462,182.9629 c -0.033,-0.39 -0.159,-0.964 -0.639,-1.44 -0.48,-0.479 -1.05,-0.606 -1.44,-0.64 -1.034,-0.089 -1.915,0.206 -2.759,1.088 -1.464,1.525 -1.521,3.12 -0.443,4.194 1.078,1.071 2.666,1.021 4.194,-0.443 0.882,-0.847 1.176,-1.727 1.087,-2.759 m 0.475,-0.875 c -0.008,0.196 -10e-4,0.411 0.018,0.652 0.092,1.169 -0.15,2.281 -1.467,3.465 -1.822,1.645 -3.615,1.261 -4.612,0.265 -0.999,-0.998 -1.381,-2.791 0.262,-4.612 1.187,-1.318 2.299,-1.561 3.466,-1.467 0.24,0.019 0.457,0.025 0.654,0.017 0.555,-0.041 0.97,-0.149 1.379,-0.401 l 0.166,0.164 c 0.212,0.211 0.371,0.402 0.501,0.591 -0.228,0.394 -0.328,0.794 -0.367,1.326"
         style="fill:#ffffff;fill-opacity:1;fill-rule:nonzero;stroke:none"
         id="path48556" />
      <path
         inkscape:connector-curvature="0"
         d="m 61.9404,180.8691 c -0.389,0.033 -0.959,0.161 -1.439,0.639 -0.48,0.478 -0.606,1.05 -0.639,1.441 -0.091,1.032 0.205,1.913 1.088,2.758 1.525,1.466 3.115,1.516 4.192,0.443 1.077,-1.073 1.023,-2.668 -0.442,-4.192 -0.845,-0.883 -1.726,-1.179 -2.76,-1.089 m 3.245,0.975 c 1.643,1.821 1.262,3.615 0.263,4.611 -0.997,0.998 -2.791,1.381 -4.613,-0.264 -1.316,-1.185 -1.559,-2.296 -1.466,-3.465 0.02,-0.24 0.026,-0.457 0.018,-0.652 -0.066,-0.882 -0.289,-1.401 -1.01,-2.123 l -1.113,-1.09 0.59,-0.592 1.089,1.116 c 0.718,0.715 1.241,0.945 2.124,1.009 0.196,0.008 0.411,0.001 0.652,-0.017 1.169,-0.095 2.279,0.149 3.466,1.467"
         style="fill:#ffffff;fill-opacity:1;fill-rule:nonzero;stroke:none"
         id="path48560" />
      <path
         id="path48562"
         style="fill:#ffffff;fill-opacity:1;fill-rule:nonzero;stroke:none"
         d="m 64.398,184.504 0.642,0 0,-0.623 -0.642,0 0,0.623 z m 0.643,-1.38 -0.642,0 0,0.624 0.642,0 0,-0.624 z m -0.775,-0.755 -0.624,0 0,0.622 0.624,0 0,-0.622 z m -0.755,-0.758 -0.624,0 0,0.623 0.624,0 0,-0.623 z m -1.382,0.623 0.625,0 0,-0.623 -0.625,0 0,0.623 z m -0.755,0 0.625,0 0,-0.623 -0.625,0 0,0.623 z m -0.756,0.757 0.625,0 0,-0.622 -0.625,0 0,0.622 z m 0,0.757 0.625,0 0,-0.624 -0.625,0 0,0.624 z m 0,0.756 0.625,0 0,-0.625 -0.625,0 0,0.625 z m 0.756,0.785 0.625,0 0,-0.653 -0.625,0 0,0.653 z m 0.755,0.798 0.625,0 0,-0.665 -0.625,0 0,0.665 z m 1.381,-0.665 -0.623,0 0,0.665 0.623,0 0,-0.665 z m 0.756,0 -0.624,0 0,0.665 0.624,0 0,-0.665 z m -0.623,-0.133 0.624,0 0,-0.653 -0.624,0 0,0.653 z m -0.756,-2.165 0,0.624 0.623,0 0.001,-0.624 -0.624,0 z m -0.758,-0.133 0.625,0 0,-0.622 -0.625,0 0,0.622 z m 0.625,0.133 -0.625,0 0,0.624 0.625,0 0,-0.624 z m 0,1.38 0,-0.623 -0.625,-0.002 0,0.625 0.625,0 z m 0.756,-0.623 -0.623,0 0,0.623 0.623,0 0,-0.623 z m 0,0.755 -0.623,0 0,0.653 0.623,0 0,-0.653 z m -1.381,0.653 0.625,0 0,-0.653 -0.625,0 0,0.653 z m -0.755,-0.785 0.625,0 0,-0.625 -0.625,0 0,0.625 z m 0,-0.756 0.625,0 0,-0.624 -0.625,0 0,0.624 z m 0,-0.757 0.625,0 0,-0.622 -0.625,0 0,0.622 z m 2.137,-0.622 -0.624,0 0,0.622 0.624,0 0,-0.622 z m 0.755,0.755 -0.624,0 0,0.624 0.624,0 0,-0.624 z m 0,0.757 -0.624,0 0,0.623 0.624,0 0,-0.623 z m 0.775,0.755 -0.642,0 0,0.653 0.642,0 0,-0.653 z m 0.132,-0.132 0.492,0 c 0,0.044 0,0.088 -0.005,0.132 l -0.487,0 0,0.653 0.34,0 c -0.016,0.045 -0.032,0.09 -0.05,0.133 l -0.29,0 0,0.463 c -0.042,0.051 -0.084,0.1 -0.132,0.149 l 0,-0.612 -0.643,0 0,0.665 0.585,0 c -0.05,0.046 -0.1,0.092 -0.154,0.132 l -0.431,0 0,0.255 c -0.042,0.019 -0.087,0.034 -0.132,0.049 l 0,-0.304 -0.623,0 0,0.442 c -0.043,0.004 -0.089,0.004 -0.133,0.006 l 0,-0.448 -0.623,0 0,0.399 c -0.045,-0.008 -0.089,-0.019 -0.133,-0.029 l 0,-0.37 -0.625,0 0,0.156 c -0.043,-0.021 -0.087,-0.041 -0.131,-0.062 l 0,-0.094 -0.173,0 c -0.072,-0.04 -0.141,-0.086 -0.21,-0.132 l 0.383,0 0,-0.665 -0.624,0 0,0.489 c -0.044,-0.036 -0.088,-0.069 -0.132,-0.108 l 0,-0.381 -0.384,0 c -0.036,-0.043 -0.073,-0.088 -0.108,-0.133 l 0.492,0 0,-0.653 -0.624,0 0,0.483 c -0.047,-0.066 -0.091,-0.134 -0.132,-0.203 l 0,-0.28 -0.157,0 c -0.022,-0.044 -0.041,-0.088 -0.061,-0.132 l 0.218,0 0,-0.625 -0.429,0 c -0.01,-0.043 -0.019,-0.088 -0.026,-0.131 l 0.455,0 0,-0.624 -0.501,0 c 0.002,-0.044 10e-4,-0.09 0.006,-0.133 l 0.495,0 0,-0.622 -0.353,0 c 0.018,-0.047 0.033,-0.092 0.052,-0.135 l 0.301,0 0,-0.477 c 0.04,-0.049 0.081,-0.098 0.127,-0.145 l 10e-4,-0.001 0.004,0 0,0.623 0.624,0 0,-0.623 -0.624,0 0,-0.003 c 0.046,-0.046 0.096,-0.087 0.147,-0.128 l 0.477,0 0,-0.297 c 0.043,-0.02 0.088,-0.034 0.132,-0.051 l 0,0.348 0.624,0 0,-0.489 c 0.044,-0.003 0.088,-0.003 0.131,-0.005 l 0,0.494 0.625,0 0,-0.449 c 0.043,0.009 0.088,0.02 0.133,0.031 l 0,0.418 0.624,0 0,-0.208 c 0.043,0.021 0.087,0.041 0.132,0.061 l 0,0.147 0.261,0 c 0.069,0.041 0.135,0.085 0.202,0.131 l -0.463,0 0,0.623 0.623,0 0,-0.502 c 0.045,0.038 0.089,0.071 0.132,0.108 l 0,0.394 0.397,0 c 0.038,0.045 0.074,0.088 0.109,0.135 l -0.506,0 0,0.622 0.643,0 0,-0.444 c 0.046,0.067 0.091,0.136 0.133,0.203 l 0,0.241 0.134,0 c 0.023,0.045 0.043,0.089 0.064,0.133 l -0.198,0 -0.001,0.624 0.413,0 c 0.009,0.043 0.022,0.089 0.031,0.133 l -0.444,0 0,0.623 z"
         inkscape:connector-curvature="0" />
    </g>
  </g>
</svg>
